/* XPM */
static char *_638030632196[] = {
/* columns rows colors chars-per-pixel */
"40 40 225 2 ",
"   c #170E00",
".  c #130B05",
"X  c #140B05",
"o  c #150C05",
"O  c #160C04",
"+  c #1A0E04",
"@  c #1C0F04",
"#  c #1F1305",
"$  c #1E1707",
"%  c #1F1806",
"&  c #1F1110",
"*  c #10191D",
"=  c #211A0B",
"-  c #221E0E",
";  c #251113",
":  c #251114",
">  c #251214",
",  c #251314",
"<  c #251315",
"1  c #251415",
"2  c #261415",
"3  c #351B12",
"4  c #24200F",
"5  c #372D0B",
"6  c #32300C",
"7  c #252110",
"8  c #272211",
"9  c #282515",
"0  c #2C2818",
"q  c #533209",
"w  c #422211",
"e  c #4E2C1E",
"r  c #672F0A",
"t  c #6B360B",
"y  c #63311B",
"u  c #63321B",
"i  c #64321B",
"p  c #64321C",
"a  c #64351D",
"s  c #63381F",
"d  c #562F21",
"f  c #5F3021",
"g  c #5F3423",
"h  c #603022",
"j  c #653F22",
"k  c #7B3F2B",
"l  c #4A4210",
"z  c #5C5114",
"x  c #655113",
"c  c #6D5415",
"v  c #716714",
"b  c #736815",
"n  c #654123",
"m  c #654324",
"M  c #273942",
"N  c #384E53",
"B  c #4A6561",
"V  c #4C6662",
"C  c #4C6763",
"Z  c #4D6863",
"A  c #4E6964",
"S  c #546D69",
"D  c #456975",
"F  c #456A77",
"G  c #486D78",
"H  c #4A6E79",
"J  c #4D717B",
"K  c #4C727C",
"L  c #6D7E7B",
"P  c #824009",
"I  c #98560A",
"U  c #9A580A",
"Y  c #A94F0F",
"T  c #AD5311",
"R  c #AE5B18",
"E  c #B35712",
"W  c #B45713",
"Q  c #B25F17",
"!  c #BE5A15",
"~  c #B05C18",
"^  c #926F1C",
"/  c #84751D",
"(  c #937D1F",
")  c #9E7A1F",
"_  c #AC7F1E",
"`  c #86432D",
"'  c #87432D",
"]  c #86472F",
"[  c #924931",
"{  c #944A31",
"}  c #944C33",
"|  c #C55D16",
" . c #C55E17",
".. c #CF650C",
"X. c #CC6C0B",
"o. c #D0630B",
"O. c #D1650C",
"+. c #D0660D",
"@. c #D1660D",
"#. c #D3660C",
"$. c #D3670D",
"%. c #CB651C",
"&. c #D27313",
"*. c #D37F1A",
"=. c #CD7423",
"-. c #CB7A28",
";. c #CB7D29",
":. c #9F861C",
">. c #AC801E",
",. c #A68C1D",
"<. c #9D9320",
"1. c #9E9321",
"2. c #9F9321",
"3. c #9F9421",
"4. c #9E9324",
"5. c #9E9424",
"6. c #9F9424",
"7. c #9E9524",
"8. c #AA802A",
"9. c #AE812B",
"0. c #B2842D",
"q. c #A29621",
"w. c #A19725",
"e. c #A09823",
"r. c #A79A22",
"t. c #A99F25",
"y. c #ACA027",
"u. c #B5AB2A",
"i. c #E69C1F",
"p. c #F19416",
"a. c #FB9D18",
"s. c #C4832D",
"d. c #C9862C",
"f. c #CB882E",
"g. c #D79A27",
"h. c #D89F24",
"j. c #C48B31",
"k. c #C59032",
"l. c #D09132",
"z. c #D29735",
"x. c #E69E20",
"c. c #C1A529",
"v. c #D8A32C",
"b. c #DABA2A",
"n. c #D9AB30",
"m. c #E0B52D",
"M. c #EFBE2F",
"N. c #FEBF2C",
"B. c #D7C02F",
"V. c #CEC731",
"C. c #D4C931",
"Z. c #D8CF32",
"A. c #F6C030",
"S. c #FDC230",
"D. c #FFC831",
"F. c #FEC832",
"G. c #FFC932",
"H. c #FECA32",
"J. c #FFCC32",
"K. c #FCCE33",
"L. c #FDCE33",
"P. c #FFCF32",
"I. c #FECE33",
"U. c #EFD434",
"Y. c #FED033",
"T. c #FED234",
"R. c #FFD334",
"E. c #FFD535",
"W. c #FFD635",
"Q. c #FED735",
"!. c #F4DF36",
"~. c #FFDB32",
"^. c #FFDB36",
"/. c #EFE337",
"(. c #FFE739",
"). c #FFE839",
"_. c #FFEA39",
"`. c #FFEB3A",
"'. c #FFEC3A",
"]. c #FFED3A",
"[. c #FFEE3A",
"{. c #FFEF3A",
"}. c #FFF33B",
"|. c #FFF43B",
" X c #FFF23C",
".X c #FFF63C",
"XX c #FFF73C",
"oX c #FFF83C",
"OX c #FFF93D",
"+X c #FFFA3D",
"@X c #547B82",
"#X c #598287",
"$X c #5C8487",
"%X c #6C8983",
"&X c #65918F",
"*X c #669290",
"=X c #6A9794",
"-X c #6C9996",
";X c #72A09B",
":X c #73A19B",
">X c #7DA5A2",
",X c #7BABA1",
"<X c #7BACA2",
"1X c #8C9F9C",
"2X c #81B1A6",
"3X c #83B3A7",
"4X c #89B7AC",
"5X c #8AB8AD",
"6X c #A0C6BD",
"7X c #A0C7BE",
"8X c #A1C7BE",
"9X c #A7CCC4",
"0X c #A9CEC5",
"qX c #B4D3CC",
"wX c #B4D3CD",
"eX c #B7D7CF",
"rX c #B7D7D0",
"tX c #B8D8D1",
"yX c #B9D8D1",
"uX c #BBDAD2",
"iX c #BBDAD3",
"pX c #BCDAD3",
"aX c #BDDBD4",
"sX c #BFDCD5",
"dX c None",
/* pixels */
"dXdXdXdXdXdXdXdXdXdXdXdXdXdXdXdXdXdXdXdXdXdXdXdXdXdXdXdXdXdXdXdXdXdXdXdXdXdXdXdX",
"dXdXdXdXdXdXdXdXdXdXdXdXdXdXdXdXdXdXdXdXdXdXdXdXdXdXdXdXdXdXdXdXdXdXdXdXdXdXdXdX",
"dXdXdXdXdXdXdXdXdXdXdXdXdXdXdXdXdXdXdXdXdXdXdXdXdXdXdXdXdXdXdXdXdXdXdXdXdXdXdXdX",
"dXdXdXdXdXdXdXdXdXdXdXdXdXdXdXdXdXdXdXdXdXdXdXdXdXdXdXdXdXdXdXdXdXdXdXdXdXdXdXdX",
"dXdXdXdXdXdXdXdXdXdXdXdXdXdXdXdXdXdXdXdXdXdXdXdXdXdXdXdXdXdXdXdXdXdXdXdXdXdXdXdX",
"dXdXdXdXdXdXdXdXdXdXdXdXdXdXdXdXdXdXdXdXdXdXdXdXdXdXdXdXdXdXdXdXdXdXdXdXdXdXdXdX",
"dXdXdXdXdXdXdXdXdXdXdXdXdXdXdXdXdXdXdXdXdXdXdXdXdXdXdXdXdXdXdXdXdXdXdXdXdXdXdXdX",
"dXdXdXdXdXdXdXdXdXdXdXdXdXdXdXdXdXdXdXdXdXdXdXdXdXdXdXdXdXdXdXdXdXdXdXdXdXdXdXdX",
"dXdXdXdXdXdXdXdXdXdXdXdXdXdXdXdXdXdXdXdXdXdXdXdXdXdXdXdXdXdXdXdXdXdXdXdXdXdXdXdX",
"dXdXdXdXdXdXdXdXdXdXdXdXdXdXdXdXdXdXdXdXdXdXdXdXdXdXdXdXdXdXdXdXdXdXdXdXdXdXdXdX",
"dXdXdXdXdXdXdXdXdXdXdXdXdXdXdXdXdXdXdXdXdXdXdXdXdXdXdXdXdXdXdXdXdXdXdXdXdXdXdXdX",
"dXdXdXdXdXdXdXdXdXdXdXdXdXdXdXdXdXdXdXdXdXdXdXdXdXdXdXdXdXdXdXdXdXdXdXdXdXdXdXdX",
"dXdXdXdXdXdXdXdXpXpXrXrXdX  % % % % % % $ = % % % $   dXaXiXyXwXdXdXdXdXdXdXdXdX",
"dXdXdXdXdXdXdXaXsXrX6X%X9 b 7.3.4.4.4.4.7.7.3.1.3.7.b 0 1XyX6X>XK dXdXdXdXdXdXdX",
"dXdXdXdXdXdXdXyXeX9X4XV 7 3.+X.XXXXXXXXX].].]. X+X+X1.7 L 0X5X*XG dXdXdXdXdXdXdX",
"dXdXdXdXdXdXdXyX6X5X2XV 4 3.+X.XXXXXXX`.Q.L.T.(.+X+X1.7 S 5X3X*XH dXdXdXdXdXdXdX",
"dXdXdXdXdXdXdXwX>X=X<XA - q.}.(.b.y.Z.].I.S.M.c.u./.q.- A ,X-X$XH dXdXdXdXdXdXdX",
"dXdXdXdXdXdXdXdXH @X;XC - 1.].Q.) 5 7.`.T.F.M.c l C.r.- A ;X@XD dXdXdXdXdXdXdXdX",
"dXdXdXdXdXdXdXdXdXK #XN - e.}.R.^ % ( Q.F.W.U.x 6 V.t.- N #XK dXdXdXdXdXdXdXdXdX",
"dXdXdXdXdXdXdXdXdXdXF M $ ,.~.P._ q 8.G.F.^.!./ c b.q., M F dXdXdXdXdXdXdXdXdXdX",
"dXdXdXdXdXdXdXdXdXdXdX* # I a.N.i.X.i.H.H.H.I.m.h.p.U # * dXdXdXdXdXdXdXdXdXdXdX",
"dXdXdXdXdXdXdXdXdXdXdXdX+ r R s.;.%.-.j.0.8._ l.f.~ r + dXdXdXdXdXdXdXdXdXdXdXdX",
"dXdXdXdXdXdXdXdXdXdXdXdXo 3 h ' { { { ] g e d m ' h 3 o dXdXdXdXdXdXdXdXdXdXdXdX",
"dXdXdXdXdXdXdXdXdXdXdXdX+ t E | =.l.z.d.Q Y T !  .W t + dXdXdXdXdXdXdXdXdXdXdXdX",
"dXdXdXdXdXdXdXdXdXdXdXdX@ P @.O.*.v.n.g.&...@...@.@.P @ dXdXdXdXdXdXdXdXdXdXdXdX",
"dXdXdXdXdXdXdXdXdXdXdXdXo w p u s m m j p u u u p p w o dXdXdXdXdXdXdXdXdXdXdXdX",
"dXdXdXdXdXdXdXdXdXdXdXdXX & 2 2 ; ; ; < < 2 2 2 2 2 & . dXdXdXdXdXdXdXdXdXdXdXdX",
"dXdXdXdXdXdXdXdXdXdXdXdXdXX X X X X X X X . X X o X X dXdXdXdXdXdXdXdXdXdXdXdXdX",
"dXdXdXdXdXdXdXdXdXdXdXdXdXdXdXdXdXdXdXdXdXdXdXdXdXdXdXdXdXdXdXdXdXdXdXdXdXdXdXdX",
"dXdXdXdXdXdXdXdXdXdXdXdXdXdXdXdXdXdXdXdXdXdXdXdXdXdXdXdXdXdXdXdXdXdXdXdXdXdXdXdX",
"dXdXdXdXdXdXdXdXdXdXdXdXdXdXdXdXdXdXdXdXdXdXdXdXdXdXdXdXdXdXdXdXdXdXdXdXdXdXdXdX",
"dXdXdXdXdXdXdXdXdXdXdXdXdXdXdXdXdXdXdXdXdXdXdXdXdXdXdXdXdXdXdXdXdXdXdXdXdXdXdXdX",
"dXdXdXdXdXdXdXdXdXdXdXdXdXdXdXdXdXdXdXdXdXdXdXdXdXdXdXdXdXdXdXdXdXdXdXdXdXdXdXdX",
"dXdXdXdXdXdXdXdXdXdXdXdXdXdXdXdXdXdXdXdXdXdXdXdXdXdXdXdXdXdXdXdXdXdXdXdXdXdXdXdX",
"dXdXdXdXdXdXdXdXdXdXdXdXdXdXdXdXdXdXdXdXdXdXdXdXdXdXdXdXdXdXdXdXdXdXdXdXdXdXdXdX",
"dXdXdXdXdXdXdXdXdXdXdXdXdXdXdXdXdXdXdXdXdXdXdXdXdXdXdXdXdXdXdXdXdXdXdXdXdXdXdXdX",
"dXdXdXdXdXdXdXdXdXdXdXdXdXdXdXdXdXdXdXdXdXdXdXdXdXdXdXdXdXdXdXdXdXdXdXdXdXdXdXdX",
"dXdXdXdXdXdXdXdXdXdXdXdXdXdXdXdXdXdXdXdXdXdXdXdXdXdXdXdXdXdXdXdXdXdXdXdXdXdXdXdX",
"dXdXdXdXdXdXdXdXdXdXdXdXdXdXdXdXdXdXdXdXdXdXdXdXdXdXdXdXdXdXdXdXdXdXdXdXdXdXdXdX",
"dXdXdXdXdXdXdXdXdXdXdXdXdXdXdXdXdXdXdXdXdXdXdXdXdXdXdXdXdXdXdXdXdXdXdXdXdXdXdXdX"
};
