/* XPM */
static char *_638030644210[] = {
/* columns rows colors chars-per-pixel */
"40 40 224 2 ",
"   c #130B04",
".  c #140B05",
"X  c #1F0F0E",
"o  c #1E1706",
"O  c #1E1707",
"+  c #1F1806",
"@  c #15100B",
"#  c #19120B",
"$  c #1B150D",
"%  c #1F170D",
"&  c #201807",
"*  c #21170C",
"=  c #20170D",
"-  c #241B0D",
";  c #251F0E",
":  c #33170E",
">  c #251113",
",  c #251114",
"<  c #251214",
"1  c #251314",
"2  c #251315",
"3  c #251415",
"4  c #261415",
"5  c #372D0B",
"6  c #32300C",
"7  c #272111",
"8  c #411F0E",
"9  c #533209",
"0  c #4E2C1E",
"q  c #662B05",
"w  c #662C05",
"e  c #6B3207",
"r  c #63311B",
"t  c #63321B",
"y  c #64321B",
"u  c #64321C",
"i  c #64351D",
"p  c #63381F",
"a  c #562F21",
"s  c #5F3021",
"d  c #5F3423",
"f  c #603022",
"g  c #653F22",
"h  c #7B3F2B",
"j  c #4A4210",
"k  c #5C5114",
"l  c #655113",
"z  c #6D5415",
"x  c #746A1A",
"c  c #654123",
"v  c #654324",
"b  c #2E4247",
"n  c #344A4D",
"m  c #354B4D",
"M  c #3F6471",
"N  c #45615D",
"B  c #486460",
"V  c #4C6A62",
"C  c #4F6C64",
"Z  c #516D63",
"A  c #516F66",
"S  c #536F69",
"D  c #426673",
"F  c #436673",
"G  c #436774",
"H  c #446874",
"J  c #456975",
"K  c #456976",
"L  c #466B76",
"P  c #476C78",
"I  c #496D78",
"U  c #4E747D",
"Y  c #4F757E",
"T  c #50777E",
"R  c #606B6A",
"E  c #823E05",
"W  c #985406",
"Q  c #9A5506",
"!  c #A94F0F",
"~  c #AD5311",
"^  c #AE5B18",
"/  c #B35712",
"(  c #B45713",
")  c #B25F17",
"_  c #BE5A15",
"`  c #B05C18",
"'  c #926F1C",
"]  c #84751D",
"[  c #937D1F",
"{  c #9E7A1F",
"}  c #AC7F1E",
"|  c #86432D",
" . c #87432D",
".. c #86472F",
"X. c #924931",
"o. c #944A31",
"O. c #944C33",
"+. c #C55D16",
"@. c #C55E17",
"#. c #CF650C",
"$. c #CC6C0B",
"%. c #D0630B",
"&. c #D1650C",
"*. c #D0660D",
"=. c #D1660D",
"-. c #D3660C",
";. c #D3670D",
":. c #CB651C",
">. c #D27313",
",. c #D37F1A",
"<. c #CD7423",
"1. c #CB7A28",
"2. c #CB7D29",
"3. c #6D807D",
"4. c #9C8419",
"5. c #AC801E",
"6. c #A3891A",
"7. c #9D9623",
"8. c #9E9324",
"9. c #9E9424",
"0. c #9F9424",
"q. c #9E9524",
"w. c #9E9525",
"e. c #AA802A",
"r. c #AE812B",
"t. c #B2842D",
"y. c #A19625",
"u. c #A19725",
"i. c #A59B26",
"p. c #A69D24",
"a. c #ACA027",
"s. c #B5AB2A",
"d. c #E69C1F",
"f. c #F19416",
"g. c #FB9D18",
"h. c #C4832D",
"j. c #C9862C",
"k. c #CB882E",
"l. c #D79A27",
"z. c #D89F24",
"x. c #C48B31",
"c. c #C59032",
"v. c #D09132",
"b. c #D29735",
"n. c #E69E20",
"m. c #C1A529",
"M. c #D8A32C",
"N. c #DABA2A",
"B. c #D9AB30",
"V. c #E0B52D",
"C. c #EFBE2F",
"Z. c #FEBF2C",
"A. c #D7C02F",
"S. c #CEC731",
"D. c #D4C931",
"F. c #D8CF32",
"G. c #F6C030",
"H. c #FDC230",
"J. c #FFC831",
"K. c #FEC832",
"L. c #FFC932",
"P. c #FECA32",
"I. c #FFCC32",
"U. c #FCCE33",
"Y. c #FDCE33",
"T. c #FFCF32",
"R. c #FECE33",
"E. c #EFD434",
"W. c #FED033",
"Q. c #FED234",
"!. c #FFD334",
"~. c #FFD535",
"^. c #FFD635",
"/. c #FED735",
"(. c #F4DF36",
"). c #FFDB32",
"_. c #FFDB36",
"`. c #EFE337",
"'. c #FFE739",
"]. c #FFE839",
"[. c #FFEA39",
"{. c #FFEB3A",
"}. c #FFEC3A",
"|. c #FFED3A",
" X c #FFEE3A",
".X c #FFEF3A",
"XX c #FFF33B",
"oX c #FFF43B",
"OX c #FFF23C",
"+X c #FFF63C",
"@X c #FFF73C",
"#X c #FFF83C",
"$X c #FFF93D",
"%X c #FFFA3D",
"&X c #537981",
"*X c #5B7E87",
"=X c #638E8E",
"-X c #698B91",
";X c #689291",
":X c #6B9794",
">X c #7AAAA1",
",X c #7DA9A3",
"<X c #80AFA5",
"1X c #80B1A6",
"2X c #84B3A8",
"3X c #85B4AA",
"4X c #86B5AA",
"5X c #89B8AD",
"6X c #93B8B3",
"7X c #9BBEBA",
"8X c #95C0B6",
"9X c #9BC3B9",
"0X c #9CC4BB",
"qX c #9FC7BE",
"wX c #A0C8BE",
"eX c #AACDC5",
"rX c #AFCDC9",
"tX c #B0D2CA",
"yX c #B3D5CD",
"uX c #B3D5CE",
"iX c #B9D8D0",
"pX c #BAD8D2",
"aX c #BBD9D2",
"sX c None",
/* pixels */
"sXsXsXsXsXsXsXsXsXsXsXsXsXsXsXsXsXsXsXsXsXsXsXsXsXsXsXsXsXsXsXsXsXsXsXsXsXsXsXsX",
"sXsXsXsXsXsXsXsXsXsXsXsXsXsXsXsXsXsXsXsXsXsXsXsXsXsXsXsXsXsXsXsXsXsXsXsXsXsXsXsX",
"sXsXsXsXsXsXsXsXsXsXsXsXsXsXsXsXsXsXsXsXsXsXsXsXsXsXsXsXsXsXsXsXsXsXsXsXsXsXsXsX",
"sXsXsXsXsXsXsXsXsXsXsXsXsXsXsXsXsXsXsXsXsXsXsXsXsXsXsXsXsXsXsXsXsXsXsXsXsXsXsXsX",
"sXsXsXsXsXsXsXsXsXsXsXsXsXsXsXsXsXsXsXsXsXsXsXsXsXsXsXsXsXsXsXsXsXsXsXsXsXsXsXsX",
"sXsXsXsXsXsXsXsXsXsXsXsXsXsXsXsXsXsXsXsXsXsXsXsXsXsXsXsXsXsXsXsXsXsXsXsXsXsXsXsX",
"sXsXsXsXsXsXsXsXsXsXsXsXsXsXsXsXsXsXsXsXsXsXsXsXsXsXsXsXsXsXsXsXsXsXsXsXsXsXsXsX",
"sXsXsXsXsXsXsXsXsXsXsXsXsXsXsXsXsXsXsXsXsXsXsXsXsXsXsXsXsXsXsXsXsXsXsXsXsXsXsXsX",
"sXsXsXsXsXsXsXsXsXsXsXsXsXsXsXsXsXsXsXsXsXsXsXsXsXsXsXsXsXsXsXsXsXsXsXsXsXsXsXsX",
"sXsXsXsXsXsXsXsXsXsXsXsXsXsXsXsXsXsXsXsXsXsXsXsXsXsXsXsXsXsXsXsXsXsXsXsXsXsXsXsX",
"sXsXsXsXsXsXsXsXsXsXsXsXsXsXsXsXsXsXsXsXsXsXsXsXsXsXsXsXsXsXsXsXsXsXsXsXsXsXsXsX",
"sXsXsXsXsXsXsXsXsXsXsXsXsXsXsXsXsXsXsXsXsXsXsXsXsXsXsXsXsXsXsXsXsXsXsXsXsXsXsXsX",
"sXsXsXsXsXsXsXsXsXsXsXsXsXo & + + + + + + + + + + + + sXsXsXsXsXsXsXsXsXsXsXsXsX",
"sXsXsXsXsXsXsXsXsXsXsXsXo x 9.9.9.9.8.8.9.9.9.9.9.9.x + sXsXsXsXsXsXsXsXsXsXsXsX",
"sXsXsXsXsXsXsXsXsXsXsXsX+ 9.%X+XoX%X+XoX|.|.|.OX%X%X9.+ sXsXsXsXsXsXsXsXsXsXsXsX",
"sXsXsXsXsXsXsXsXsXsXsXsX+ 9.%X+X+XoX%X|./.R.Q.'.%X%X9.+ sXsXsXsXsXsXsXsXsXsXsXsX",
"sXsXsXsXsXsXsXsXsXsXsXsX+ 9.XX'.A.a.F.|.R.H.G.m.s.`.y.+ sXsXsXsXsXsXsXsXsXsXsXsX",
"sXsXsXsXsXsXsXsXsXsXsXsX& 9.|./.{ 5 y.[.R.K.C.z j D.i.o sXsXsXsXsXsXsXsXsXsXsXsX",
"sXsXsXsXsXsXsXsXsXsXsXR ; 9.XXQ.' o [ /.K./.E.k 6 S.p.7 R sXsXsXsXsXsXsXsXsXsXsX",
"sXsXsXsXsXsXsXsXsXsXuX3.7 4.).R.} 9 } J.J._.(.] l N.6.7 3.uXsXsXsXsXsXsXsXsXsXsX",
"sXsXsXsXsXsXsXsXsXuX8XS - Q g.Z.n.$.n.J.J.P.W.N.z.f.Q - S 8XuXsXsXsXsXsXsXsXsXsX",
"sXsXsXsXsXsXsXsXeX0X4XV % q ^ h.2.:.1.x.t.e.r.x.k.` q % V 4XqX6XsXsXsXsXsXsXsXsX",
"sXsXsXsXsXsXsXiX9X2X,XA $ : s  .o.X.O...d 0 a h  .f : $ Z 1X<X;XI sXsXsXsXsXsXsX",
"sXsXsXsXsXsXsXaXtXwX5XA = e / @.<.v.b.j.` ~ ~ _ @.( e = A >X=XT L sXsXsXsXsXsXsX",
"sXsXsXsXsXsXsXaXrX7X,XN = E =.=.,.M.B.l.>.#.=.#.=.=.E = B :XU F L sXsXsXsXsXsXsX",
"sXsXsXsXsXsXsXsX-X*X&Xm # 8 u i i c v g i u u u u u 8 # m T P F sXsXsXsXsXsXsXsX",
"sXsXsXsXsXsXsXsXsXM G b . X 4 4 4 , 2 > 2 2 4 4 4 4 = @ b F F sXsXsXsXsXsXsXsXsX",
"sXsXsXsXsXsXsXsXsXsXsXsXsX. . . . . . . . . . . . .   sXsXsXsXsXsXsXsXsXsXsXsXsX",
"sXsXsXsXsXsXsXsXsXsXsXsXsXsXsXsXsXsXsXsXsXsXsXsXsXsXsXsXsXsXsXsXsXsXsXsXsXsXsXsX",
"sXsXsXsXsXsXsXsXsXsXsXsXsXsXsXsXsXsXsXsXsXsXsXsXsXsXsXsXsXsXsXsXsXsXsXsXsXsXsXsX",
"sXsXsXsXsXsXsXsXsXsXsXsXsXsXsXsXsXsXsXsXsXsXsXsXsXsXsXsXsXsXsXsXsXsXsXsXsXsXsXsX",
"sXsXsXsXsXsXsXsXsXsXsXsXsXsXsXsXsXsXsXsXsXsXsXsXsXsXsXsXsXsXsXsXsXsXsXsXsXsXsXsX",
"sXsXsXsXsXsXsXsXsXsXsXsXsXsXsXsXsXsXsXsXsXsXsXsXsXsXsXsXsXsXsXsXsXsXsXsXsXsXsXsX",
"sXsXsXsXsXsXsXsXsXsXsXsXsXsXsXsXsXsXsXsXsXsXsXsXsXsXsXsXsXsXsXsXsXsXsXsXsXsXsXsX",
"sXsXsXsXsXsXsXsXsXsXsXsXsXsXsXsXsXsXsXsXsXsXsXsXsXsXsXsXsXsXsXsXsXsXsXsXsXsXsXsX",
"sXsXsXsXsXsXsXsXsXsXsXsXsXsXsXsXsXsXsXsXsXsXsXsXsXsXsXsXsXsXsXsXsXsXsXsXsXsXsXsX",
"sXsXsXsXsXsXsXsXsXsXsXsXsXsXsXsXsXsXsXsXsXsXsXsXsXsXsXsXsXsXsXsXsXsXsXsXsXsXsXsX",
"sXsXsXsXsXsXsXsXsXsXsXsXsXsXsXsXsXsXsXsXsXsXsXsXsXsXsXsXsXsXsXsXsXsXsXsXsXsXsXsX",
"sXsXsXsXsXsXsXsXsXsXsXsXsXsXsXsXsXsXsXsXsXsXsXsXsXsXsXsXsXsXsXsXsXsXsXsXsXsXsXsX",
"sXsXsXsXsXsXsXsXsXsXsXsXsXsXsXsXsXsXsXsXsXsXsXsXsXsXsXsXsXsXsXsXsXsXsXsXsXsXsXsX"
};
