/* XPM */
static char *_638030625003[] = {
/* columns rows colors chars-per-pixel */
"40 40 240 2 ",
"   c #130B05",
".  c #140B05",
"X  c #150C05",
"o  c #160C04",
"O  c #1A0E04",
"+  c #1C0F04",
"@  c #1B1107",
"#  c #1E1706",
"$  c #1E1707",
"%  c #1F1806",
"&  c #1B1108",
"*  c #1F1110",
"=  c #21170A",
"-  c #22180B",
";  c #231C0B",
":  c #211B0C",
">  c #241F0F",
",  c #251113",
"<  c #251114",
"1  c #251214",
"2  c #251314",
"3  c #251315",
"4  c #251415",
"5  c #261415",
"6  c #351B12",
"7  c #372D0B",
"8  c #32300C",
"9  c #262010",
"0  c #272211",
"q  c #282312",
"w  c #213237",
"e  c #25363A",
"r  c #533209",
"t  c #422211",
"y  c #4E2C1E",
"u  c #672E08",
"i  c #6B360B",
"p  c #63311B",
"a  c #63321B",
"s  c #64321B",
"d  c #64321C",
"f  c #64351D",
"g  c #63381F",
"h  c #562F21",
"j  c #5F3021",
"k  c #5F3423",
"l  c #603022",
"z  c #653F22",
"x  c #7B3F2B",
"c  c #4A4210",
"v  c #5C5114",
"b  c #655113",
"n  c #6D5415",
"m  c #746A1A",
"M  c #654123",
"N  c #654324",
"B  c #273B45",
"V  c #293F47",
"C  c #394E53",
"Z  c #3F6371",
"A  c #474E4F",
"S  c #4A5152",
"D  c #46585D",
"F  c #416572",
"G  c #406573",
"H  c #426572",
"J  c #436673",
"K  c #426674",
"L  c #436775",
"P  c #446774",
"I  c #446874",
"U  c #466A77",
"Y  c #476C77",
"T  c #486D78",
"R  c #4D747D",
"E  c #4E747D",
"W  c #4F757D",
"Q  c #4F767D",
"!  c #50767E",
"~  c #657676",
"^  c #6B7B79",
"/  c #707F7D",
"(  c #824009",
")  c #9B5707",
"_  c #9A5608",
"`  c #A94F0F",
"'  c #AD5311",
"]  c #AE5B18",
"[  c #B35712",
"{  c #B45713",
"}  c #B25F17",
"|  c #BE5A15",
" . c #B05C18",
".. c #926F1C",
"X. c #84751D",
"o. c #937D1F",
"O. c #9E7A1F",
"+. c #AC7F1E",
"@. c #86432D",
"#. c #87432D",
"$. c #86472F",
"%. c #924931",
"&. c #944A31",
"*. c #944C33",
"=. c #C55D16",
"-. c #C55E17",
";. c #CF650C",
":. c #CC6C0B",
">. c #D0630B",
",. c #D1650C",
"<. c #D0660D",
"1. c #D1660D",
"2. c #D3660C",
"3. c #D3670D",
"4. c #CB651C",
"5. c #D27313",
"6. c #D37F1A",
"7. c #CD7423",
"8. c #CB7A28",
"9. c #CB7D29",
"0. c #A0871C",
"q. c #AC801E",
"w. c #A4891B",
"e. c #9D9320",
"r. c #9D9322",
"t. c #9F9722",
"y. c #9E9324",
"u. c #9E9424",
"i. c #9F9424",
"p. c #9E9524",
"a. c #9E9525",
"s. c #AA802A",
"d. c #AE812B",
"f. c #B2842D",
"g. c #A19523",
"h. c #A19725",
"j. c #A59921",
"k. c #A69D22",
"l. c #ACA027",
"z. c #B5AB2A",
"x. c #E69C1F",
"c. c #F19416",
"v. c #FB9D18",
"b. c #C4832D",
"n. c #C9862C",
"m. c #CB882E",
"M. c #D79A27",
"N. c #D89F24",
"B. c #C48B31",
"V. c #C59032",
"C. c #D09132",
"Z. c #D29735",
"A. c #E69E20",
"S. c #C1A529",
"D. c #D8A32C",
"F. c #DABA2A",
"G. c #D9AB30",
"H. c #E0B52D",
"J. c #EFBE2F",
"K. c #FEBF2C",
"L. c #D7C02F",
"P. c #CEC731",
"I. c #D4C931",
"U. c #D8CF32",
"Y. c #F6C030",
"T. c #FDC230",
"R. c #FFC831",
"E. c #FEC832",
"W. c #FFC932",
"Q. c #FECA32",
"!. c #FFCC32",
"~. c #FCCE33",
"^. c #FDCE33",
"/. c #FFCF32",
"(. c #FECE33",
"). c #EFD434",
"_. c #FED033",
"`. c #FED234",
"'. c #FFD334",
"]. c #FFD535",
"[. c #FFD635",
"{. c #FED735",
"}. c #F4DF36",
"|. c #FFDB32",
" X c #FFDB36",
".X c #EFE337",
"XX c #FFE739",
"oX c #FFE839",
"OX c #FFEA39",
"+X c #FFEB3A",
"@X c #FFEC3A",
"#X c #FFED3A",
"$X c #FFEE3A",
"%X c #FFEF3A",
"&X c #FFF33B",
"*X c #FFF43B",
"=X c #FFF23C",
"-X c #FFF63C",
";X c #FFF73C",
":X c #FFF83C",
">X c #FFF93D",
",X c #FFFA3D",
"<X c #537981",
"1X c #577B83",
"2X c #557D82",
"3X c #5B7F87",
"4X c #5C7F87",
"5X c #768583",
"6X c #699593",
"7X c #6F9C97",
"8X c #75969B",
"9X c #71A099",
"0X c #72A099",
"qX c #74A19B",
"wX c #7EA2A3",
"eX c #7DA8A2",
"rX c #83A8A6",
"tX c #91B5B1",
"yX c #93BBB4",
"uX c #9CBFBB",
"iX c #97C0B7",
"pX c #99C3B8",
"aX c #9AC3B8",
"sX c #9CC4BA",
"dX c #A5C4C1",
"fX c #A3CAC0",
"gX c #B1D4CB",
"hX c #B5D3CD",
"jX c #B6D5CE",
"kX c #B8D7D0",
"lX c #B8D7D1",
"zX c #B9D8D0",
"xX c #B9D9D2",
"cX c #BBD9D2",
"vX c #BBDAD3",
"bX c #BCDAD3",
"nX c #BBDCD3",
"mX c #BEDDD6",
"MX c #C1DED7",
"NX c None",
/* pixels */
"NXNXNXNXNXNXNXNXNXNXNXNXNXNXNXNXNXNXNXNXNXNXNXNXNXNXNXNXNXNXNXNXNXNXNXNXNXNXNXNX",
"NXNXNXNXNXNXNXNXNXNXNXNXNXNXNXNXNXNXNXNXNXNXNXNXNXNXNXNXNXNXNXNXNXNXNXNXNXNXNXNX",
"NXNXNXNXNXNXNXNXNXNXNXNXNXNXNXNXNXNXNXNXNXNXNXNXNXNXNXNXNXNXNXNXNXNXNXNXNXNXNXNX",
"NXNXNXNXNXNXNXNXNXNXNXNXNXNXNXNXNXNXNXNXNXNXNXNXNXNXNXNXNXNXNXNXNXNXNXNXNXNXNXNX",
"NXNXNXNXNXNXNXNXNXNXNXNXNXNXNXNXNXNXNXNXNXNXNXNXNXNXNXNXNXNXNXNXNXNXNXNXNXNXNXNX",
"NXNXNXNXNXNXNXNXNXNXNXNXNXNXNXNXNXNXNXNXNXNXNXNXNXNXNXNXNXNXNXNXNXNXNXNXNXNXNXNX",
"NXNXNXNXNXNXNXNXNXNXNXNXNXNXNXNXNXNXNXNXNXNXNXNXNXNXNXNXNXNXNXNXNXNXNXNXNXNXNXNX",
"NXNXNXNXNXNXNXNXNXNXNXNXNXNXNXNXNXNXNXNXNXNXNXNXNXNXNXNXNXNXNXNXNXNXNXNXNXNXNXNX",
"NXNXNXNXNXNXNXNXNXNXNXNXNXNXNXNXNXNXNXNXNXNXNXNXNXNXNXNXNXNXNXNXNXNXNXNXNXNXNXNX",
"NXNXNXNXNXNXNXNXNXNXNXNXNXNXNXNXNXNXNXNXNXNXNXNXNXNXNXNXNXNXNXNXNXNXNXNXNXNXNXNX",
"NXNXNXNXNXNXNXNXNXNXNXNXNXNXNXNXNXNXNXNXNXNXNXNXNXNXNXNXNXNXNXNXNXNXNXNXNXNXNXNX",
"NXNXNXNXNXNXNXNXNXNXNXNXNXNXNXNXNXNXNXNXNXNXNXNXNXNXNXNXNXNXNXNXNXNXNXNXNXNXNXNX",
"NXNXNXNXNXNXNXNXNXNXNXNXNX# = % % % % % % % % % % % % NXNXNXNXNXNXNXNXNXNXNXNXNX",
"NXNXNXNXNXNXNXNXNXNXNXNX# m u.u.u.y.y.y.y.u.u.u.u.u.m % NXNXNXNXNXNXNXNXNXNXNXNX",
"NXNXNXNXNXNXNXNXNXNXNXNX% u.,X-X,X*X-X*X$X$X$X=X,X,Xu.% NXNXNXNXNXNXNXNXNXNXNXNX",
"NXNXNXNXNXNXNXNXNXNXNXNX% u.,X-X*X,X-X$X{.(.`.XX,X,Xu.% NXNXNXNXNXNXNXNXNXNXNXNX",
"NXNXNXNXNXNXNXNXNXNXNXS ; e.=XXXL.l.U.+X^.T.J.S.z..Xg.; A NXNXNXNXNXNXNXNXNXNXNX",
"NXNXNXNXNXbXxXzXkXxXkX^ 0 e.$X{.O.7 h.+X^.Q.J.n c I.j.q / mXbXkXkXhXhXNXNXNXNXNX",
"NXNXNXNXNXMXgXsXpXyXwXD > t.=X`...# o.{.Q.{.).v 8 I.k.q 5XnXfXpXuXrX8XNXNXNXNXNX",
"NXNXNXNXNXdXtXqX9X6XQ B : 0.|.(.+.r +.R.E. X}.X.b F.g.5 ~ uXeX9X7X2XP NXNXNXNXNX",
"NXNXNXNXNX4X1X! ! Q U V = ) v.K.A.:.A.R.R.!.~.H.N.c.) - C 3X<XQ ! T P NXNXNXNXNX",
"NXNXNXNXNXNXF G G P U e @ u ] b.9.4.8.B.f.+.d.V.m. .u & w G G G G P NXNXNXNXNXNX",
"NXNXNXNXNXNXNXNXNXNXNXNXo 6 j #.&.%.&.$.k y h x #.l 6 o NXNXNXNXNXNXNXNXNXNXNXNX",
"NXNXNXNXNXNXNXNXNXNXNXNXO i { -.7.C.Z.n. .' ' | -.{ i + NXNXNXNXNXNXNXNXNXNXNXNX",
"NXNXNXNXNXNXNXNXNXNXNXNX+ ( 1.,.6.D.G.M.5.>.;.;.1.3.( + NXNXNXNXNXNXNXNXNXNXNXNX",
"NXNXNXNXNXNXNXNXNXNXNXNXo t d a g M N z f a a a d d t o NXNXNXNXNXNXNXNXNXNXNXNX",
"NXNXNXNXNXNXNXNXNXNXNXNX  * 5 5 3 , 3 , 3 5 5 5 5 5 *   NXNXNXNXNXNXNXNXNXNXNXNX",
"NXNXNXNXNXNXNXNXNXNXNXNXNX. . . . . . . .   . . . . . NXNXNXNXNXNXNXNXNXNXNXNXNX",
"NXNXNXNXNXNXNXNXNXNXNXNXNXNXNXNXNXNXNXNXNXNXNXNXNXNXNXNXNXNXNXNXNXNXNXNXNXNXNXNX",
"NXNXNXNXNXNXNXNXNXNXNXNXNXNXNXNXNXNXNXNXNXNXNXNXNXNXNXNXNXNXNXNXNXNXNXNXNXNXNXNX",
"NXNXNXNXNXNXNXNXNXNXNXNXNXNXNXNXNXNXNXNXNXNXNXNXNXNXNXNXNXNXNXNXNXNXNXNXNXNXNXNX",
"NXNXNXNXNXNXNXNXNXNXNXNXNXNXNXNXNXNXNXNXNXNXNXNXNXNXNXNXNXNXNXNXNXNXNXNXNXNXNXNX",
"NXNXNXNXNXNXNXNXNXNXNXNXNXNXNXNXNXNXNXNXNXNXNXNXNXNXNXNXNXNXNXNXNXNXNXNXNXNXNXNX",
"NXNXNXNXNXNXNXNXNXNXNXNXNXNXNXNXNXNXNXNXNXNXNXNXNXNXNXNXNXNXNXNXNXNXNXNXNXNXNXNX",
"NXNXNXNXNXNXNXNXNXNXNXNXNXNXNXNXNXNXNXNXNXNXNXNXNXNXNXNXNXNXNXNXNXNXNXNXNXNXNXNX",
"NXNXNXNXNXNXNXNXNXNXNXNXNXNXNXNXNXNXNXNXNXNXNXNXNXNXNXNXNXNXNXNXNXNXNXNXNXNXNXNX",
"NXNXNXNXNXNXNXNXNXNXNXNXNXNXNXNXNXNXNXNXNXNXNXNXNXNXNXNXNXNXNXNXNXNXNXNXNXNXNXNX",
"NXNXNXNXNXNXNXNXNXNXNXNXNXNXNXNXNXNXNXNXNXNXNXNXNXNXNXNXNXNXNXNXNXNXNXNXNXNXNXNX",
"NXNXNXNXNXNXNXNXNXNXNXNXNXNXNXNXNXNXNXNXNXNXNXNXNXNXNXNXNXNXNXNXNXNXNXNXNXNXNXNX",
"NXNXNXNXNXNXNXNXNXNXNXNXNXNXNXNXNXNXNXNXNXNXNXNXNXNXNXNXNXNXNXNXNXNXNXNXNXNXNXNX"
};
