/* XPM */
static char *_638030207882[] = {
/* columns rows colors chars-per-pixel */
"40 40 99 2 ",
"   c #87572C",
".  c #87592F",
"X  c #89592F",
"o  c #8A5D34",
"O  c #8B6035",
"+  c #8D633A",
"@  c #90643D",
"#  c #A46B28",
"$  c #A86F28",
"%  c #DB7527",
"&  c #DE7B26",
"*  c #D97429",
"=  c #DB7828",
"-  c #E17D25",
";  c #906744",
":  c #936B46",
">  c #9B6F43",
",  c #956E4B",
"<  c #99724E",
"1  c #967050",
"2  c #9B7453",
"3  c #9D7957",
"4  c #9E7E5E",
"5  c #AB7E4B",
"6  c #A17D5E",
"7  c #F2961D",
"8  c #F59C1C",
"9  c #F89F1C",
"0  c #F7A11D",
"q  c #F9A11B",
"w  c #E48224",
"e  c #EB8B21",
"r  c #E2812A",
"t  c #E98C29",
"y  c #EF9124",
"u  c #EB912F",
"i  c #F09221",
"p  c #F39C23",
"a  c #F0962C",
"s  c #F39E2B",
"d  c #EB9432",
"f  c #ED9936",
"g  c #F29E34",
"h  c #EFA02A",
"j  c #F6A324",
"k  c #F8A424",
"l  c #F5A52B",
"z  c #F8A729",
"x  c #F7AB2F",
"c  c #F9A92C",
"v  c #F4A533",
"b  c #F8A431",
"n  c #F5AA33",
"m  c #FAAC33",
"M  c #F3A63A",
"N  c #F3AA3C",
"B  c #FAAD3A",
"V  c #FAB036",
"C  c #FCB13B",
"Z  c #898C54",
"A  c #8E895C",
"S  c #928E54",
"D  c #948D5C",
"F  c #949658",
"G  c #969A5E",
"H  c #999C5F",
"J  c #968D64",
"K  c #959066",
"L  c #979F62",
"P  c #9A9E63",
"I  c #989D69",
"U  c #A38364",
"Y  c #A48568",
"T  c #A48B6E",
"R  c #AB896D",
"E  c #A59065",
"W  c #A78D72",
"Q  c #AD8E73",
"!  c #A49574",
"~  c #A39B74",
"^  c #9DA46C",
"/  c #A2A774",
"(  c #A8A573",
")  c #A5A873",
"_  c #EFAB49",
"`  c #F3AE41",
"'  c #F1AF49",
"]  c #F4B145",
"[  c #FDB341",
"{  c #F3B34D",
"}  c #E4A750",
"|  c #F1AF55",
" . c #EFB352",
".. c #F2B353",
"X. c #F2B55A",
"o. c #F4B85B",
"O. c #F2BA64",
"+. c #AEAC83",
"@. c None",
/* pixels */
"@.@.@.@.@.@.@.@.@.@.@.@.@.@.@.@.@.@.@.@.@.@.@.@.@.@.@.@.@.@.@.@.@.@.@.@.@.@.@.@.",
"@.@.@.@.@.@.@.@.@.@.@.@.@.@.@.@.@.@.@.@.@.@.@.@.@.@./ @.@.@.@.@.@.@.@.@.@.@.@.@.",
"@.@.@.@.@.@.@.@.@.@.@.@.@.@.@.@.@.@.@.@.@.@.@.@.@.@.) @.P ^ @.@.@.@.@.@.@.@.@.@.",
"@.@.@.@.@.@.@.@.@.@.@.@.@.@.@.@.@.@.@.@.@.@.@.@.@.~ +.@.@.@.@.@.@.@.@.@.@.@.@.@.",
"@.@.@.@.@.@.@.@.@.@.@.@.@.@.@.@.@.@.@.@.@.@.@.@.W J @.@.F H +.^ ^ @.@.@.@.@.@.@.",
"@.@.@.6 6 6 6 @.@.@.@.@.@.@.@.@.@.@.@.@.@.@.@.T @.@.@.@.D K @.@.@.@.@.@.@.@.@.@.",
"@.@.: + : 2 @   X + @.@.@.@.@.@.@.@.@.@.@.@.U @.@.T @.@.@.@.@.@.@.@.@.@.@.@.@.@.",
"@.@.U 2 U @.< ; O     o ; @.@.@.@.@.@.@.@.< < 4 @.@.@.@.@.@.@.@.@.@.@.@.@.@.@.@.",
"@.@.@.@.@.@.@.@.@.@.@.; o X O , @.@.@.@.1 : @.@.@.@.@.@.@.@.@.@./ @.Z I @.@.@.@.",
"@.@.@.@.@.@.@.@.@.@.@.@.@.@.+ O O o   o 3 @.@.@.@.@.@.@.@.@.@.P @.@.Z G @.@.@.@.",
"@.@.@.@.@.@.@.@.@.@.@.@.@.@.@.@.@.@.5 $ # > , 1 2 : 3 Y W Q E ~ @.@.@.@.@.@.@.@.",
"@.@.@.@.@.@.@.@.@.@.@.@.@.@.@.@.@.@.{ n l } @.@.@.: < Y @.@.@.@.@.L / @.@.@.@.@.",
"@.@.@.@.@.@.@.@.@.@.@.@.@.@.@.@.@.] j k p h @.@.@.@.@.@.@.R @.! S ( @.@.@.@.@.@.",
"@.@.@.@.@.@.@.@.@.@.@.@.@.@.@.@.N x m z 9 0 j ` @.@.@.@.@.@.@.@.A ~ @.@.P @.@.@.",
"@.@.@.@.@.@.@.@.@.@.@.@.@.@.@.] j j j j 9 7 8 s o.@.@.@.@.@.@.@.@.@.@.@.@.@.@.@.",
"@.@.@.@.@.@.@.@.@.@.@.@.@.@.` z V V m z 9 9 8 8 j X.@.@.@.@.@.@.@.@.@.@.@.@.@.@.",
"@.@.@.@.@.@.@.@.@.@.@.@.@.{ x k k l l j 8 8 8 7 7 N @.@.@.@.@.@.@.@.@.@.@.@.@.@.",
"@.@.@.@.@.@.@.@.@.@.@.@.O.l k m C C B x 0 9 9 9 0 p { @.@.@.@.@.@.@.@.@.@.@.@.@.",
"@.@.@.@.@.@.@.@.@.@.@.@.{ z k c c z l l p 8 8 8 7 7 n @.@.@.@.@.@.@.@.@.@.@.@.@.",
"@.@.@.@.@.@.@.@.@.@.@.{ k x C C C C m u a i 9 9 q q q n @.@.@.@.@.@.@.@.@.@.@.@.",
"@.@.@.@.@.@.@.@.@.@.@.{ q 0 k k c B t w w e i 9 8 7 7 l @.@.@.@.@.@.@.@.@.@.@.@.",
"@.@.@.@.@.@.@.@.@.@.{ m x x x m B d & * % - e 8 8 8 8 j ` @.@.@.@.@.@.@.@.@.@.@.",
"@.@.@.@.@.@.@.@.@.@.n j m V C [ B - * * * % w 8 q q 0 0 k @.@.@.@.@.@.@.@.@.@.@.",
"@.@.@.@.@.@.@.@.@.@.{ 0 q k k c g * * * % * - e 8 8 7 7 M @.@.@.@.@.@.@.@.@.@.@.",
"@.@.@.@.@.@.@.@.@. .b m V V C C d * * * * * & e 9 8 9 9 0 { @.@.@.@.@.@.@.@.@.@.",
"@.@.@.@.@.@.@.@.@.{ l c B C C C t * * * * * % e 9 q q 9 0 { @.@.@.@.@.@.@.@.@.@.",
"@.@.@.@.@.@.@.@.@.@.{ 0 0 k k m d * * * * * % e 8 8 7 7 M @.@.@.@.@.@.@.@.@.@.@.",
"@.@.@.@.@.@.@.@.@.@.] 0 x V C C d * * * * * % e 8 9 9 9 l @.@.@.@.@.@.@.@.@.@.@.",
"@.@.@.@.@.@.@.@.@.@.@.B k z c m g * * * * * & y 0 q 9 v { @.@.@.@.@.@.@.@.@.@.@.",
"@.@.@.@.@.@.@.@.@.@.@.{ 0 0 j j b r * * * % w 7 8 7 f _ @.@.@.@.@.@.@.@.@.@.@.@.",
"@.@.@.@.@.@.@.@.@.@.@.{ k c C C [ f * * * & y q q q j _ @.@.@.@.@.@.@.@.@.@.@.@.",
"@.@.@.@.@.@.@.@.@.@.@.@.o.z k z z l u r w e 7 8 8 p { @.@.@.@.@.@.@.@.@.@.@.@.@.",
"@.@.@.@.@.@.@.@.@.@.@.@.@.n c m m m B s 8 9 0 8 p N X.@.@.@.@.@.@.@.@.@.@.@.@.@.",
"@.@.@.@.@.@.@.@.@.@.@.@.@.@.x k z z z 9 9 8 7 p N X.@.@.@.@.@.@.@.@.@.@.@.@.@.@.",
"@.@.@.@.@.@.@.@.@.@.@.@.@.@.N c m m c k 9 9 j v ..@.@.@.@.@.@.@.@.@.@.@.@.@.@.@.",
"@.@.@.@.@.@.@.@.@.@.@.@.@.@.@.] j k k 0 8 p M | @.@.@.@.@.@.@.@.@.@.@.@.@.@.@.@.",
"@.@.@.@.@.@.@.@.@.@.@.@.@.@.@.@.N c m B l N ..O.@.@.@.@.@.@.@.@.@.@.@.@.@.@.@.@.",
"@.@.@.@.@.@.@.@.@.@.@.@.@.@.@.@.@.] n { N ..@.@.@.@.@.@.@.@.@.@.@.@.@.@.@.@.@.@.",
"@.@.@.@.@.@.@.@.@.@.@.@.@.@.@.@.@.@.{ o.o.@.@.@.@.@.@.@.@.@.@.@.@.@.@.@.@.@.@.@.",
"@.@.@.@.@.@.@.@.@.@.@.@.@.@.@.@.@.@.@.@.@.@.@.@.@.@.@.@.@.@.@.@.@.@.@.@.@.@.@.@."
};
