/* XPM */
static char *_638028954286[] = {
/* columns rows colors chars-per-pixel */
"40 40 100 2 ",
"   c #CB9306",
".  c #D49A06",
"X  c #DD9C06",
"o  c #D59D09",
"O  c #E19E06",
"+  c #DEA206",
"@  c #D7A10D",
"#  c #DBA60B",
"$  c #DFAC0C",
"%  c #DAA410",
"&  c #DEAE15",
"*  c #DAA719",
"=  c #E4A406",
"-  c #E9A506",
";  c #E5AB05",
":  c #E4AE0A",
">  c #EAB614",
",  c #D6AA25",
"<  c #E7BB23",
"1  c #EABA24",
"2  c #E6BA31",
"3  c #EBBF33",
"4  c #E4B93B",
"5  c #D3B255",
"6  c #E3BC48",
"7  c #D7BC65",
"8  c #DBBF64",
"9  c #E9C742",
"0  c #E4C04B",
"q  c #EECC56",
"w  c #DFC772",
"e  c #DFC878",
"r  c #E5CA63",
"t  c #ECCE62",
"y  c #E4C668",
"u  c #E9CF6D",
"i  c #EFD163",
"p  c #E2C976",
"a  c #EAD47D",
"s  c #F3D872",
"d  c #B9B9BB",
"f  c #E2CD88",
"g  c #E5D080",
"h  c #EBD584",
"j  c #EEDB97",
"k  c #EBDB98",
"l  c #F2E09D",
"z  c #E6D7A6",
"x  c #EDDEA2",
"c  c #EBDEAD",
"v  c #E5DBB4",
"b  c #EDE0AB",
"n  c #F5E5A2",
"m  c #EFE5BD",
"M  c #F1E7B3",
"N  c #C2C1C4",
"B  c #C7C5C8",
"V  c #CBCACD",
"C  c #D4D3D5",
"Z  c #D8D8D7",
"A  c #DBDBDC",
"S  c #EFE9CD",
"D  c #F3E9C4",
"F  c #F0E8CB",
"G  c #EDE7D6",
"H  c #EBE6DC",
"J  c #EEE9DA",
"K  c #F4EED2",
"L  c #F3EEDB",
"P  c #F6F1DC",
"I  c #F9F3DA",
"U  c #DEDEE2",
"Y  c #E0DFE1",
"T  c #DFE1E3",
"R  c #E3E3E5",
"E  c #E8E7E6",
"W  c #ECEAE4",
"Q  c #E6E6E9",
"!  c #E8E7EB",
"~  c #E7E8EA",
"^  c #ECECED",
"/  c #F2EEE3",
"(  c #F0EFEC",
")  c #F7F3E1",
"_  c #F9F5E3",
"`  c #FCFAE7",
"'  c #F3F2EC",
"]  c #F9F6EC",
"[  c #FCF8EB",
"{  c #EEEEF1",
"}  c #F0EFF2",
"|  c #EFF0F4",
" . c #F3F3F4",
".. c #F8F7F4",
"X. c #FAFAF4",
"o. c #F6F6F9",
"O. c #F8F7F9",
"+. c #F7F8FA",
"@. c #FBFBFB",
"#. c None",
/* pixels */
"#.#.#.#.#.#.#.#.#.#.#.#.#.#.#.#.#.#.#.#.#.#.#.#.#.#.#.#.#.#.#.#.#.#.#.#.#.#.#.#.",
"#.#.#.#.#.#.#.#.#.#.#.#.#.#.#.#.#.#.#.#.A #.#.#.#.#.#.#.#.#.#.#.#.#.#.#.#.#.#.#.",
"#.#.#.#.#.#.#.#.#.#.#.#.#.Q Q #.#.#.! R { Q #.#.#.#.#.#.#.#.#.#.#.#.#.#.#.#.#.#.",
"#.#.#.#.#.#.#.#.#.#.#.#.#.Q { Q #.Q { ! { { Q ! { #.#.#.#.#.#.#.#.#.#.#.#.#.#.#.",
"#.#.#.#.#.#.#.#.#.#.Q { R ! { ! A Q { { { o.{ { | ! Q #.#.#.#.#.#.#.#.#.#.#.#.#.",
"#.#.#.#.#.#.#.#.#.#.Q  .| ^ { ~ Q Q { { } o. .O.+. .! #.#.R U #.#.#.#.#.#.#.#.#.",
"#.#.#.#.#.#.#.#.{ { ~ |  .^ { ~ ^ ! ^ {  .o. .O.o.| T #.{ { { #.#.#.#.#.#.#.#.#.",
"#.#.#.#.#.#.Q #.Q { { { | { ( ~ ^ ^ ^ { { o.o.O. .{ U ! { { Q #.#.#.#.#.#.#.#.#.",
"#.#.#.#.#.Q | o.Q ! { { { | ( ^ ^ ^ ~ { ( O...+.{ { !  .{ { #.#.Q U #.#.#.#.#.#.",
"#.#.#.#.#.#.{ +. .Y { { ^ | | { ^ ^ W | | ..+...{ { ^ { { R ! { o.| U #.#.#.#.#.",
"#.#.#.#.#.#.{  .O.^ Y { ^ { ( ( ^ { ^ ( W +.O. .{ ^ { { ~ ^ +.O.+.U ! #.#.#.#.#.",
"#.#.#.#.#.#.{  . ...Q Q ( ^ ^ ( { W ( ( ( ..X.( ^ { ^ ^ ! +.@.+.R T | U #.#.#.#.",
"#.#.#.#.#.V V {  .} | E W ^ ^ W ( ^ ( ( ] X.' ^ ^ ( ^ ^ O.@.O.| R  . .! #.#.#.#.",
"#.#.#.Q { { A C ! } | ( ~ W ^ ( ( J G K P ` W W ( ^ ^ ..@.O. .o.o.o.o.{ #.#.#.#.",
"#.#.#.Q |  . .^ A E ^ ( ( W W / S k u i s n v G W ( ....o. .o.o.O.o.{ #.#.#.#.#.",
"#.#.#.#.Q  .{  . .R H ! ' ' J b q > : ; ; > 3 b J ] ' '  ...O... .Q R ~ U #.#.#.",
"#.#.#.#.A T { | |  .^ E W ) D 9 ; = = ; - - ; > n P ( ..O.o.o.' ! {  .| { A #.#.",
"#.A ~ ^ ' ^ R E ' '  .' ( S i : ; = = - - - - - 2 m ]  .o...^ {  . .| | Q #.#.#.",
"#.R | |  . . .| W ^ ( ( J b < + - - O X X O - - : h / ' '  .o.o. .| Q T #.#.#.#.",
"#.#.T | | | |  .| | | ' / h $ + = O .   . O - - = 0 I ] o... .^ ~ R R ^ Q A #.#.",
"#.#.Q { |  .|  . . .' ' W a $ ; - = .   . + - - = 4 K ...... . . .O.o.| { R C #.",
"#.#.T { | |  . . . .' ^ H a $ + - - = X + = - - = 6 I X.O.@.O...+.O.o.o.| ! #.#.",
"#.#.#.A ~ ^ ( ^ ^ ~ E W H f & # O - - - - - - = + y _ X.@.X.O.O.O.O.o.o.o.{ T #.",
"#.#.R | | | ^ ^ ( ^ E E E D r # + = O - = - - = * z ] ]  .^ Q ~ ^ ^ ! { { ~ #.#.",
"#.#.R ^ { ! ! Q A A ~  ...` D 0 @ o + = = = = % p P X.@.@.@.( A V N d #.#.#.#.#.",
"#.#.#.#.Z A A U ~  .....@...] D 8 , o . o % , p I X.@.@.@.@.@.@.+.| ~ R A #.#.#.",
"#.#.#.A R Q !  .| +...@.......] L c w 5 7 k M ` X.X.@.@.@.@.@.@.+.+.o.{ R V #.#.",
"#.#.C Y Q ^ {  . . .+... .......' ] ` _ _ X.X.@.@.X.@.@.@.@.@.@.+.o.o.{ U #.#.#.",
"#.#.#.U Y Y ^  .o.o. .^ O.O.+.X. ...X.X.@.@.@.@.@.@.O.@.@.+.+.@.o.o.| { #.#.#.#.",
"#.#.#.#.#.U | o.o.W R +.O.O.@.o...X.O.@.@.@.@.@.@.@.@.X. .O.+.+. .{ ! Q #.#.#.#.",
"#.#.#.#.#.Q | { C Z o.@.+.O... .o.@.@.@.@.@.@.@.@.@.@.@.! ! { o. .{ #.#.#.#.#.#.",
"#.#.#.#.#.#.#.#.C o.@.+.+.+. . .o.+.@.O.@.@.@.@.@.@.@.@.+.#.#.! { ! #.#.#.#.#.#.",
"#.#.#.#.#.#.#.R o.O.O.o. .{  .{  ...O.O.@.@.@.@.@.@.@.@.@.{ #.#.#.#.#.#.#.#.#.#.",
"#.#.#.#.#.#.#.Q { '  .| T { |  .}  .O.O.O.@.@.@.+.+.@.@.@.o.#.#.#.#.#.#.#.#.#.#.",
"#.#.#.#.#.#.#.#.#.Q ! #.#.! { ! ! o. .o. .@.+.+.O.o.( @.@.+.Q #.#.#.#.#.#.#.#.#.",
"#.#.#.#.#.#.#.#.#.#.#.#.#.Q R A ^ { o. .{ +.o. . .^ Q !  .o.Q #.#.#.#.#.#.#.#.#.",
"#.#.#.#.#.#.#.#.#.#.#.#.#.B B Q Q Q  .^ ! o.} Q R Z #.#.R Q Z #.#.#.#.#.#.#.#.#.",
"#.#.#.#.#.#.#.#.#.#.#.#.#.#.Y Q #.R ^ R R  .! #.#.#.#.#.#.#.#.#.#.#.#.#.#.#.#.#.",
"#.#.#.#.#.#.#.#.#.#.#.#.#.#.#.#.#.#.Y #.#.R #.#.#.#.#.#.#.#.#.#.#.#.#.#.#.#.#.#.",
"#.#.#.#.#.#.#.#.#.#.#.#.#.#.#.#.#.#.#.#.#.#.#.#.#.#.#.#.#.#.#.#.#.#.#.#.#.#.#.#."
};
