/* XPM */
static char *_638029275354[] = {
/* columns rows colors chars-per-pixel */
"40 40 116 2 ",
"   c #466D1A",
".  c #4C681C",
"X  c #457718",
"o  c #52751C",
"O  c #567B1F",
"+  c #4C6D26",
"@  c #4E6D2A",
"#  c #546D25",
"$  c #536E2C",
"%  c #596C2A",
"&  c #4E7223",
"*  c #4F7923",
"=  c #4E722A",
"-  c #4F7B2E",
";  c #557424",
":  c #597525",
">  c #547A24",
",  c #5B7B25",
"<  c #55742B",
"1  c #5B752C",
"2  c #557B2B",
"3  c #5C7B2C",
"4  c #4D6533",
"5  c #546D33",
"6  c #596E33",
"7  c #557432",
"8  c #5C7433",
"9  c #567B35",
"0  c #5C7C32",
"q  c #5A7539",
"w  c #5D7B3A",
"e  c #637C27",
"r  c #62752D",
"t  c #637D2C",
"y  c #697A2C",
"u  c #647534",
"i  c #6B7434",
"p  c #637C33",
"a  c #6A7D35",
"s  c #64763C",
"d  c #6B753A",
"f  c #647D3B",
"g  c #6B7C3A",
"h  c #707A35",
"j  c #727D3B",
"k  c #697640",
"l  c #607E40",
"z  c #6D7C42",
"x  c #757F42",
"c  c #7D7C44",
"v  c #50801A",
"b  c #548225",
"n  c #5D8225",
"m  c #5C8C23",
"M  c #56822C",
"N  c #5C822B",
"B  c #5D8A2D",
"V  c #5D8332",
"C  c #5F8B34",
"Z  c #5F8139",
"A  c #628325",
"S  c #648A25",
"D  c #6B8926",
"F  c #63832D",
"G  c #6A842E",
"H  c #648A2D",
"J  c #6B8B2D",
"K  c #708E2E",
"L  c #699025",
"P  c #6C932C",
"I  c #638333",
"U  c #6A8434",
"Y  c #658A32",
"T  c #6B8B34",
"R  c #64823A",
"E  c #6B843B",
"W  c #658B3A",
"Q  c #6C8B3B",
"!  c #728535",
"~  c #728C35",
"^  c #73843C",
"/  c #79863E",
"(  c #738C3B",
")  c #7B8D3B",
"_  c #669233",
"`  c #6D9134",
"'  c #64933B",
"]  c #6D913A",
"[  c #739334",
"{  c #7C9436",
"}  c #749934",
"|  c #7A9D37",
" . c #73933B",
".. c #79923C",
"X. c #709838",
"o. c #7B9B3C",
"O. c #7BA134",
"+. c #648340",
"@. c #6C8441",
"#. c #658A42",
"$. c #6D8A41",
"%. c #6F8948",
"&. c #728442",
"*. c #7B8745",
"=. c #758D42",
"-. c #7B8C43",
";. c #768B49",
":. c #7A8E4A",
">. c #759244",
",. c #7A9443",
"<. c #7C9A43",
"1. c #79944A",
"2. c #7E9B4B",
"3. c #809141",
"4. c #829F4B",
"5. c #82A241",
/* pixels */
"U g g 0 U R S 3 t G T 3 T J U  . .~ [ T T 3 9 f U ( .... . .[ ~ J U E R 3 0 3 e ",
"G p 0 p E $.R N < t T ~ 3.<...o.~ ` I 0 q q R 3 M V 1 F H ` I 1 M F ] V M Y 3 B ",
"e I ~ U T  .>.P  . .<.,.} ..( U J Y p E =.U T S M B 2 V J ~ 8 w B b B M 0 V > 3 ",
"L P  .[ D , F F H P Q G J E ( } ] p V E ! J  .I Q Q R 0 y j u q ' M 9 w 1 F ` T ",
"N ` < T  .R w R T S T T J U [ } ..,.( a , 0 p +.R u r i d z u g W M < 3 E U U  .",
"V p , < E $.5 2 W ` B S J T Y ` { [ ( T , , 1 p E R a g u z a U P O n H p p 1 F ",
"[  .[ ..,.>.>.E I F , 8 p t H D T G Y H U I F 0 E R Q ,./ ~ R a U N Y F r t 3 H ",
"G G [ | `  .J T Q Y N t p < 8 R H _ ` T T G , H < 1 T  .~ H E / U 3 , R +.e , B ",
"` H T F T ~ F u z U Q # U U 0 R f , , J a (  .F H U U H A F Z u 3 u p s f g t 3 ",
"H ` U U t e $ 0 2 e W 3 B U &.! G a ; 1 U e ~ ! T p I H n V t -.0 1 U p ;.E U I ",
"1 : g ~ ( I , H H I p Q n I ( ) t U t V p R e j F A Q X.P D ( n p Y W , E 0 0 T ",
"p U Y n p  .^ / T U a ~ N < 9 Q P T U Q A [ I 7 E U w $ D  .p V >.V C ; V 0 F P ",
"U  .N 3 4.;.~ t I U ^ ! Y M V #.T } J t H t 3 U N B 0 p b b M V J I , 3 2 3 0 ; ",
"=.;.U >.( ( ] P T U G [ H T F 1 ! ( U 1 J T U I a H 0 E > 3 0 p W U $.0 > , 3 F ",
";...E R Q ) ~ 4.o.T G T ` [ ~ R &.Q A I U , 3 _ W H ' - 2 V 9 I G U U I U 3 ; Y ",
"{ T Q U 8 E Q U P T  ...( U S 3 [ A B 8 I ( , B W M n M 8 U > * ; F N V a G  .U ",
"p T N F ` Q G G T H G _ I 8 I 2 V G Y U ! ( 3 I W * 0 0 Z J G T I H W I p + E -.",
"U  .F F ` J [ U W ` F G f 6 : 3 8 7 ; + U p 0 V > M V 0 V N [ 2.} <. .Y p =.V w ",
"T p U  .V Q  .$.I G ( h s k 3 + 7 0 M , F J F V V n O & 2 ; A o.X.T ~ Q U ~ G R ",
"~ T N . < R f p 8 s u j j g J M ; , ; 2 f G n o ] C ; 3 V > , I H =.=.<.} R , J ",
"5.Y S : 2 8 a =.! ^ ^ E E r R B ; 8 0 , T E , U Y F & , I F G U t ! =.G Y U R ` ",
"Y N 1 E , I 0 1 F ;.( T E ( ) F ..u I U e E U T 3 < 0 2 , N I T ~ / a U >.) Q ^ ",
"Q R R 3 ; ; 3 I Y  .[ n R E p p R ! < Y ! y @.E F E 0 p ( I 3 1 G I p E d r ! s ",
"G E I ( I & Y Y F e , H t D I I M T < + 3 x g R E g p > 0 3 0 U p U a d c g E ..",
"% 7 U / U Y @.p E 9 ; ; > ' J 1 b T g 0 1 f s i 8 @.;.I 0 Q I m b B 2 # * Y 3 I ",
"E E &...U $.Q I f q 8 , n 2 3 O < I W f d i p V W ] E E V W I n n > M C X v b E ",
"E p 8 8 p 8 9 @ ; f p 0 3 , V w < 0 3 3 G U p M > 2 W a t r Y m V > > 0 < ; o 2 ",
"p T F 1 i 1 N 0 T R g 0 < . < < 8 , I E V P A p F Q I z &.3 J Y F ] V #.>.o 3 0 ",
"V U S R u E V F ~ R +.E I Y H E T  .H 2 Q .. .T I 9 i i a p H H V M _ H U , & S ",
"N I [  .( Q I ~ U Q =.a g 0 p g a T P D ( ~ D Q } A U ^ G >.I b ' M B M 3 R B I ",
"T Y , n H I I ( { T R f 9 R ( E p < F ` J T T G U D ..$.1...N V W 3 3 p f 1.~ U ",
"W ] E ` H F R u > ( G ` ] >.T E ) g R M W H P J U G a ,.W G t 0 2 > 9 g H T U 3 ",
"F Y ] ( T H 3 > 1 L ` ~ ~ U J W O.T Q 7 0 > < U U  .^ U Y J I 3 A f I Q 0 F [ H ",
"1 , 3 U : I Z 8 t I J ` T J G ! T ~ E 0 e p 1 0 H 3 3 + , B n o W B 3 s & M N S ",
"3 g 1 5 1 0 f E 8 0 C B W L J U I e ) ( Y U E ^ 3 u 3 M I n M < + T ( E I >.p < ",
"8 p s R f a 1 R E 1 3 , , , F R ] ) ^ U Y ..3.p Q g U e # ; w 6 E T ~ / >.o.( I ",
"9 T ( I M ~ E 0 3 I p 6 1 0 1 E e E a 0 E a i w E w 0 5 $ 0 1 t p F G ~ I J ~ E ",
": Q S t , H g E < 7 7 4 f R < p E I U 7 g s s ( ` $.Q T I Q I $.9 < ~ H U t ~ ;.",
"E } Y 2 < V T U ^ % 8 7 w 0 E d 8 y ^ u u f R I R ~ ( ..N F R < %   2 u U ) g G ",
"w I F 7 Q  .] R 8 @.l I @ p $.z s q &.&.1.E I 9 3 , , Q ` ( I 0 0 8 p G F N > R "
};
