/* XPM */
static char *_638042096074[] = {
/* columns rows colors chars-per-pixel */
"40 40 180 2 ",
"   c #000000",
".  c #0B0501",
"X  c #0B0B0C",
"o  c #140B01",
"O  c #1A0C00",
"+  c #1E1200",
"@  c #251801",
"#  c #291900",
"$  c #352201",
"%  c #3C2400",
"&  c #432A02",
"*  c #512F01",
"=  c #4D3705",
"-  c #523403",
";  c #4F3617",
":  c #633B01",
">  c #5D3F2A",
",  c #5B4100",
"<  c #6E4301",
"1  c #6F4B00",
"2  c #614501",
"3  c #744501",
"4  c #7E4C01",
"5  c #774805",
"6  c #7E5300",
"7  c #765406",
"8  c #6F4826",
"9  c #755332",
"0  c #1B1B43",
"q  c #201F52",
"w  c #23234F",
"e  c #28275C",
"r  c #272562",
"t  c #2D2C6F",
"y  c #2B2B65",
"u  c #333263",
"i  c #2D2B72",
"p  c #323272",
"a  c #3A3A76",
"s  c #3E4072",
"d  c #665A61",
"f  c #625171",
"g  c #786477",
"h  c #804E00",
"j  c #825200",
"k  c #895301",
"l  c #8E5B01",
"z  c #955C01",
"x  c #8B6808",
"c  c #926403",
"v  c #9C6E03",
"b  c #966604",
"n  c #9C7202",
"m  c #9A720A",
"M  c #956E16",
"N  c #AA6C00",
"B  c #A36903",
"V  c #A57603",
"C  c #A97701",
"Z  c #A57903",
"A  c #A97900",
"S  c #B57700",
"D  c #B97B02",
"F  c #B67800",
"G  c #8F6846",
"H  c #846966",
"J  c #806B7D",
"K  c #AE8502",
"L  c #B38402",
"P  c #B88803",
"I  c #BC8700",
"U  c #B99114",
"Y  c #B98A23",
"T  c #C58600",
"R  c #C48D00",
"E  c #C28E0B",
"W  c #C69401",
"Q  c #CC9500",
"!  c #C19801",
"~  c #D39400",
"^  c #D69D00",
"/  c #C39519",
"(  c #DCA300",
")  c #D6A708",
"_  c #C9A619",
"`  c #DBA313",
"'  c #E5A700",
"]  c #E4AB01",
"[  c #ECAD00",
"{  c #ECB200",
"}  c #E3B305",
"|  c #F1B501",
" . c #F5BB00",
".. c #F9BD00",
"X. c #F8B907",
"o. c #E0B617",
"O. c #F4B913",
"+. c #C79525",
"@. c #DBA936",
"#. c #EAB728",
"$. c #E7B239",
"%. c #F4BC3B",
"&. c #FDC400",
"*. c #FFC900",
"=. c #F5C20C",
"-. c #FFD000",
";. c #FBC31C",
":. c #FAC511",
">. c #FBC52D",
",. c #FBC436",
"<. c #E6B74D",
"1. c #F0BD57",
"2. c #DEB568",
"3. c #E4BB66",
"4. c #E8B860",
"5. c #EDC644",
"6. c #F8C540",
"7. c #EDC352",
"8. c #F0C156",
"9. c #E7C578",
"0. c #3B3F86",
"q. c #4B4B8B",
"w. c #4B4B93",
"e. c #4F5092",
"r. c #5B5697",
"t. c #62568D",
"y. c #675A92",
"u. c #7C7A8C",
"i. c #686896",
"p. c #757590",
"a. c #5657A1",
"s. c #5D5EAC",
"d. c #5758A2",
"f. c #5E60AF",
"g. c #5F60B1",
"h. c #6F6FAD",
"j. c #6767B9",
"k. c #6F70BD",
"l. c #7171B2",
"z. c #6A6CC3",
"x. c #6E70C9",
"c. c #7475C7",
"v. c #7678D4",
"b. c #7B7BD4",
"n. c #7A7CD9",
"m. c #7477D2",
"M. c gray55",
"N. c #93939E",
"B. c #8181AD",
"V. c #9291B1",
"C. c #B2B1B1",
"Z. c #EACF9E",
"A. c #EAC689",
"S. c #DCCFBA",
"D. c #EAD3AD",
"F. c #E9D5B5",
"G. c #9999CB",
"H. c #8385D6",
"J. c #8D8DD9",
"K. c #8585DA",
"L. c #9D9FD5",
"P. c #AAA9DD",
"I. c #8889E2",
"U. c #999AE0",
"Y. c #9FA0E0",
"T. c #A1A2E2",
"R. c #CACAD7",
"E. c #ECDCC8",
"W. c #F3E2CB",
"Q. c #EAE3DA",
"!. c #F6E9D4",
"~. c #CCCCE1",
"^. c #D1D1EC",
"/. c #D7D7F2",
"(. c #E9E7E7",
"). c #F7F3EB",
"_. c #E5E5F3",
"`. c #FDFDFD",
"'. c #F6F4F4",
"]. c None",
/* pixels */
"].].].].].].].].].].].].].].].].].].].].].].].].].].].].].].].].].].].].].].].].",
"].].].].].].].].].].].].].].].].].].].].].].].].].].].].].].].].].].].].].].].].",
"].].].].].].].].].].].].].].].].].m L ].].].].].].].].].].].].].].].].].].].].].",
"].].].].b.J.i.].].].].].].].].].].].x m ].].].].].].].].].].].].].].].].].].].].",
"].].].u b.I.K.s.].].].].].].].].].].].x ].].].].].].].].].].].].].].].].].].].].",
"].].].a v.n.n.b.k.].].].].].].].].].].].j ].].].].].].].].].].].].].].].].].].].",
"].].].].v.n.n.n.U.(.].].].].].].].].].].].2 ].].].].].].].].].].].].].].].].].].",
"].].].].x.n.n.v.T.`.h.].].].].].- < j 6 K m ].].].].].].].].].].].].].].].].].].",
"].].].].d.n.n.b.G.`.K.a.].].].3 N ] | 2.W.<.Q ].].].].].].].].].].].].].].].].].",
"].].].].].j.n.n.J._.H.m.q.].: F [ ..>.Q.'.!.<.- ].].& = ].].].].].].].].].].].].",
"].].].].].w w.z.U.`.l.m.x.].3 ' ..{ >.E.M.`.8.} K ].].].x m ].].].].].].].].].].",
"].].].].].].i p B.'.c.s.v.f.8 [ #.4.>.F.C.`.W.;. .].].].].].].].].].].].].].].].",
"].].].].].].r i i.R.c.r.t.y.> } 8.(.3.1.).`.`.A.( ].].].].].].].].].].].].].].].",
"].].].].].].].0 p._.d +.O.O.( _ 5.Q.).8.<.E.!.,.] ].].].].].].].].].].].].].].].",
"].].].].].].].].].].Y &.*.*.&.R #.9.(.S.%.&.&.*.&.].].].].].].].].].].].].].].].",
"].].].].].].].].].V &.&.*.*.*.&.I ] $.D.Z.O.&.*.&.M ].].].].].].].].].].].].].].",
"].].].].].].].].].} *...( ] *.*.&.] W E @.E ` ;.=.H L.R.s.w.e ].].].].].].].].].",
"].].].].].].].].L &.{ 7 c  .*.*.*.*. .W h c f g J j.P./.b.b.m.j.s ].].].].].].].",
"].].].].].].].].| { j = T &.*.*.*.&.| A b D G a 0.w.G.^.v.v.b.n.z.].].].].].].].",
"].].].].].].].P | C ].5 ~ &.*.*.*.&.&.].].z T 9 e t V.R.p w.g.x.v.j.].].].].].].",
"].].].].].].].] Q ].].h ~ *.*.*.*.*...].].].l W ].].u.N.i i i y e.j.r.].].].].].",
"].].].].].].].' ].].].k Q *.*.*.&.*. .].].].].P L ].].].].w r e ].].].].].].].].",
"].].].].].]./ L ].].].z T &.-.-.*.*...].].].].].L ].].].].].].0 ].].].].].].].].",
"].].].].].]._ ].].].].z F &.*.-.*.&.| ].].].].].( U ].].].].].].].].].].].].].].",
"].].].].].].o.].].].].h B ( ] Q K v 1 @ ].].].R [ &._ ].].].].].].].].].].].].].",
"].].].].].b ] ].].].].O O $ # @ o .     ].].].W W &.&.].].].].].].].].].].].].].",
"].].].].].{ &.' ].].].                    ].].].Q &.^ ].].].].].].].].].].].].].",
"].].].].( *.&. .^ ].].                    ].].].].].].].].].].].].].].].].].].].",
"].].].].{ *.*.) A ].].].              + , n ].].].].].].].].].].].].].].].].].].",
"].].].].Q *.*...].].].].        . % 1 L ..X.].].].].].].].].].].].].].].].].].].",
"].].].].].Z { ..].].].].].* : 4 j Q &.&.*.*.[ ].].].].].].].].].].].].].].].].].",
"].].].].].].].].].].].].].; z B N F | *.&.*.&.R ].].].].].].].].].].].].].].].].",
"].].].].].].].].].].].].].].].k N N S [ &.&.] , . ].].].].].].].].].].].].].].].",
"].].].].].].].].].].].].].].].].M B B N T R &     o ].].].].].].].].].].].].].].",
"].].].].].].].].].].].].].].].].].].h 5 % o       = ] ! ].].].].].].].].].].].].",
"].].].].].].].].].].].].].].].].].].].].        % Q *.*.) Z P ].].].].].].].].].",
"].].].].].].].].].].].].].].].].].].].].].].X @ 4 T ] &.&.^ ' $ ].].].].].].].].",
"].].].].].].].].].].].].].].].].].].].].].].].].].].7 n V ' m o     ].].].].].].",
"].].].].].].].].].].].].].].].].].].].].].].].].].].].].].l ].].].].].].].].].].",
"].].].].].].].].].].].].].].].].].].].].].].].].].].].].].].].].].].].].].].].]."
};
