/* XPM */
static char *_638036446623[] = {
/* columns rows colors chars-per-pixel */
"40 40 195 2 ",
"   c #EE861D",
".  c #EE8B1E",
"X  c #F18C1D",
"o  c #ED901E",
"O  c #F4931E",
"+  c #F69C1E",
"@  c #F99E1D",
"#  c #F6A117",
"$  c #F9A117",
"%  c #F6A11B",
"&  c #F9A11A",
"*  c #EC8323",
"=  c #EC8A23",
"-  c #EA842A",
";  c #E98C29",
":  c #F58E20",
">  c #EC9B2C",
",  c #EC9829",
"<  c #F49521",
"1  c #F99E21",
"2  c #E68632",
"3  c #E58A32",
"4  c #E28B3F",
"5  c #EB9532",
"6  c #EE9C36",
"7  c #EB9C3C",
"8  c #EEA223",
"9  c #F5A321",
"0  c #F9A524",
"q  c #FBA826",
"w  c #F3A42B",
"e  c #FAA728",
"r  c #F6A92B",
"t  c #FBAC2B",
"y  c #F4A331",
"u  c #F5AA33",
"i  c #FCAE32",
"p  c #F2AC3A",
"a  c #FAAD3A",
"s  c #F1A63D",
"d  c #FCB235",
"f  c #FCBA37",
"g  c #F5B23B",
"h  c #FAB43A",
"j  c #FDBD3D",
"k  c #E19949",
"l  c #E49554",
"z  c #E0985F",
"x  c #E29E55",
"c  c #EDA840",
"v  c #E7A348",
"b  c #EBAB4A",
"n  c #F3AF46",
"m  c #F7B542",
"M  c #F9B646",
"N  c #F5BB43",
"B  c #FCBD42",
"V  c #F2B64B",
"C  c #F3BB4C",
"Z  c #F9BD4A",
"A  c #EAB25D",
"S  c #EBBA5F",
"D  c #F7BA51",
"F  c #F9BE56",
"G  c #E49F67",
"H  c #DFA069",
"J  c #DDA372",
"K  c #E2AD6F",
"L  c #E7B967",
"P  c #EDBB64",
"I  c #EEBD6B",
"U  c #E6A87C",
"Y  c #E0A373",
"T  c #E6B872",
"R  c #EDBC72",
"E  c #E4BB7E",
"W  c #F7C047",
"Q  c #FAC143",
"!  c #FAC34B",
"~  c #FAC553",
"^  c #FBC854",
"/  c #F7C75D",
"(  c #FAC65D",
")  c #FED15E",
"_  c #EEC363",
"`  c #FBCC62",
"'  c #F1C56F",
"]  c #FCC669",
"[  c #FCD162",
"{  c #FEDA6F",
"}  c #FDD66D",
"|  c #EEC57A",
" . c #EFCD7A",
".. c #FEDC75",
"X. c #FEDE79",
"o. c #FBD674",
"O. c #FEE17E",
"+. c #9BB7BF",
"@. c #E0AE85",
"#. c #E2BF86",
"$. c #E5BE8F",
"%. c #E3B289",
"&. c #E5BE9D",
"*. c #E4BEA1",
"=. c #DFC597",
"-. c #E1C186",
";. c #E7C68A",
":. c #ECD387",
">. c #E6C39A",
",. c #E4C594",
"<. c #ECD495",
"1. c #EBD89E",
"2. c #E8D29A",
"3. c #DFCBA4",
"4. c #DBCCB3",
"5. c #DFD2B7",
"6. c #DBD1BB",
"7. c #E4C2AA",
"8. c #EAC7AF",
"9. c #E4C8AA",
"0. c #E6D1A8",
"q. c #E8D7A8",
"w. c #E4CCB6",
"e. c #E9DAB3",
"r. c #E8D3BE",
"t. c #E7DBBE",
"y. c #E5D0BA",
"u. c #9EB7C3",
"i. c #A4BBC6",
"p. c #A7C1C9",
"a. c #ACC3C9",
"s. c #B3CACE",
"d. c #B8C8CD",
"f. c #B3C4CE",
"g. c #B5CCD1",
"h. c #BBCED4",
"j. c #B5C6D1",
"k. c #B5D1D4",
"l. c #BAD1D5",
"z. c #BDD3DA",
"x. c #BFD8DD",
"c. c #C3CEC4",
"v. c #C8CEC6",
"b. c #C5CFCB",
"n. c #C3D0C6",
"m. c #C9D1C7",
"M. c #C9D6CC",
"N. c #D9D7C5",
"B. c #D9D9C2",
"V. c #DCDBCF",
"C. c #D5DAC7",
"Z. c #C1CFD8",
"A. c #C3D2D4",
"S. c #CDD8D3",
"D. c #C2D5DB",
"F. c #CAD7DD",
"G. c #C3DADD",
"H. c #CBDCDD",
"J. c #CAD5D1",
"K. c #D2D7D1",
"L. c #D4DBD2",
"P. c #D1DDD9",
"I. c #E8DDCB",
"U. c #D4E2DD",
"Y. c #E7E0C5",
"T. c #E6E4CA",
"R. c #E5E3D3",
"E. c #E3E5DA",
"W. c #E2EDDF",
"Q. c #E9E2DA",
"!. c #C6DCE2",
"~. c #CADEE3",
"^. c #CCDFE9",
"/. c #D2DFE3",
"(. c #CBE1E5",
"). c #CDE3EA",
"_. c #D4E2E4",
"`. c #D8E2E3",
"'. c #D9E9E7",
"]. c #D3E5EA",
"[. c #DAE6EA",
"{. c #D4E9ED",
"}. c #DEEAEB",
"|. c #D5ECF1",
" X c #DBECF2",
".X c #E4E8E0",
"XX c #E2EBEC",
"oX c #E8E7E2",
"OX c #E3F3EF",
"+X c #E4EEF2",
"@X c #E5F2F3",
"#X c #EBF3F2",
"$X c #E6F3F9",
"%X c #E8F5F9",
"&X c None",
/* pixels */
"&X&X&X&X&X&X&X&X&X&X&X&X&X&X&X&X&X&X&X&X&X&X&X&X&X&X&X&X&X&X&X&X&X&X&X&X&X&X&X&X",
"&X&X&X&X&X&X&X&X&X&X&X&X&X&X&X&X&X&X&X&X&X&X&X&X&X&X&X&X&X&X&X&X&X&X&X&X&X&X&X&X",
"&X&X&X&X&X&X&X&X&X&X&X&X&X&XXX+X[.}.}.XX}.[.XX&X&X&X&X&X&X&X&X&X&X&X&X&X&X&X&X&X",
"&X&X&X&X&X&X&X&X}.[._.~.G.z.h.g.g.g.g.g.g.g.h.D.~.].].[.].[.+X&X&X&X&X&X&X&X&X&X",
"&X&X&X&X&X&X&X&X'.).z.h.g.g.s.g.g.k.g.k.k.g.g.g.g.g.g.h.~.].}.&X&X&X&X&X&X&X&X&X",
"&X&X&X&X&X&X&X'.H.).).{.].).).(.~.^.!.^.~.~.!.^.(.).).^.^.~.G.&X&X&X&X&X&X&X&X&X",
"&X&X&X&X&X&X&X$X].).(.(.).~.H.(.~.!.!.!.!.!.x.x.z.k.l.z.x.!.'.&X&X&X&X&X&X&X&X&X",
"&X&X&X&X&X&X&X X{.|.{.]._.(.~.G.x.z.g.l.l.l.h.l.z.!.).).{.{.XX&X&X&X&X&X&X&X&X&X",
"&X&X&X&X&X&X&X[.~.~.~.).{.|.|.{.|.|.{.).{.{.{.|.{.).(.G.x.z.U.&X&X&X&X&X&X&X&X&X",
"&X&X&X&X&X&X&X&X[.~.~.G.H.G.D.x.G.G.G.G.x.x.x.z.z.k.k.x.G.(.@X&X&X&X&X&X&X&X&X&X",
"&X&X&X&X&X&X&X+X). X X X'.P.P.P.M.m.v.n.d.n.b.M.G.U._.{.|.|.@X&X&X&X&X&X&X&X&X&X",
"&X&X&X&X&X&X&X_.].W.T.t.e.1.<.:. . .' _ S P R | ;.2.e.Y.E.}. X$X&X&X&X&X&X&X&X&X",
"&X&X&X&X&X&X'.U.q.| V a Z ~ ( ( / ( ! h d i i i d g N W _ <.E.}.&X&X&X&X&X&X&X&X",
"&X&X&X&X&X&XU.q.N j B h d d d d d d a d d d h h m N W N B h R E.+X&X&X&X&X&X&X&X",
"&X&X&X&X&X[.N.b w / C u m M B B B B B B Q ~ W C D V V n , 1 9 R .X&X&X&X&X&X&X&X",
"&X&X&X&X&X/.,.9 N { Z u , = ; 5 6 6 6 6 7 ] 5 - 7 b > a % % % w 0.OX&X&X&X&X&X&X",
"&X&X&X&XXXL.A t Q ) N j j j i i y y y 6 y ~ p a F o.u 9 % % & 0 K XX&X&X&X&X&X&X",
"&X&X&X&X XC.p f ! ! Q j j j j j j B j j j Q Q j ~ X.g % % % & 1 k R.&X&X&X&X&X&X",
"&X&X&X&X].5.r j ..[ B j f j j j j B j j j j j j W { h # # % % 1 3 r.&X&X&X&X&X&X",
"&X&X&X&X_.3.i ^ O.[ j j j j j j j j j j j j j j N ! t % % @ % 1 : 8.$X&X&X&X&X&X",
"&X&X&X&X`.=.d ^ O.[ j j j Q j j j j j j j j j Q j d q $ @ @ # + * 7.$X&X&X&X&X&X",
"&X&X&X&XU.-.t ^ O.[ j j j j j j j j j j j j j j j d q $ # $ @ + * *.$X&X&X&X&X&X",
"&X&X&X&X`.-.t ^ :.[ j j j Q j j j j j j j j j j f i q $ $ $ @ O * 7.#X&X&X&X&X&X",
"&X&X&X&X'.,.q Q O.{ Q j j j j Q j j j j j j j j d i 0 $ $ $ @ X - w.&X&X&X&X&X&X",
"&X&X&X&X X4.0 h ..{ Q j j j j g j j j j j j j j d q @ $ $ & 1   k I.&X&X&X&X&X&X",
"&X&X&X&XOXN.c r / O.! j j j j j j j j j j j j d i q 0 $ $ 1 . * G oX&X&X&X&X&X&X",
"&X&X&X&X&XU.E 9 M O.^ j j j f j j j j j j j d d t 0 & $ % <   - >.#X&X&X&X&X&X&X",
"&X&X&X&X&X X6.s 9 ` ) j j j j j j j j j j d i t 0 & @ $ + = * l Q.&X&X&X&X&X&X&X",
"&X&X&X&X&X&X`.-.9 u [ g g j f j j j f d d i t 9 & $ $ @ o * 3 9.#X&X&X&X&X&X&X&X",
"&X&X&X&X&X&XXXC.L % M N t i d i d d i i i 0 $ $ % % @ X * - %.XX&X&X&X&X&X&X&X&X",
"&X&X&X&X&X&X&X/.6.S 8 d % 0 t t t q e 0 % % @ @ $ + . * - U oX%X&X&X&X&X&X&X&X&X",
"&X&X&X&X&X&X&X}.l.C.T w % $ $ & & & $ $ # # @ 1 < : * 3 %.Q.#X&X&X&X&X&X&X&X&X&X",
"&X&X&X&X&X&X&X&X_.a.K.>.v % % 1 @ @ $ @ $ + O : * - l 7.`./.&X&X&X&X&X&X&X&X&X&X",
"&X&X&X&X&X&X&X&X&XF.i.j.N.$.x 5 < < O O X   * 2 G &.V.D.f.&X&X&X&X&X&X&X&X&X&X&X",
"&X&X&X&X&X&X&X&X&X&XF.i.i.g.V.5.*.@.J G Y @.&.y.L.l.i.i.].&X&X&X&X&X&X&X&X&X&X&X",
"&X&X&X&X&X&X&X&X&X&X&X/.j.u.+.i.g.A.S.K.J.A.s.i.u.i.s.`.&X&X&X&X&X&X&X&X&X&X&X&X",
"&X&X&X&X&X&X&X&X&X&X&X&X&X[.H.F.A.Z.h.h.h.Z.D.A.F.&X&X&X&X&X&X&X&X&X&X&X&X&X&X&X",
"&X&X&X&X&X&X&X&X&X&X&X&X&X&X&X&X&X&X&X&X&X&X&X&X&X&X&X&X&X&X&X&X&X&X&X&X&X&X&X&X",
"&X&X&X&X&X&X&X&X&X&X&X&X&X&X&X&X&X&X&X&X&X&X&X&X&X&X&X&X&X&X&X&X&X&X&X&X&X&X&X&X",
"&X&X&X&X&X&X&X&X&X&X&X&X&X&X&X&X&X&X&X&X&X&X&X&X&X&X&X&X&X&X&X&X&X&X&X&X&X&X&X&X"
};
