/* XPM */
static char *_638036025087[] = {
/* columns rows colors chars-per-pixel */
"40 40 132 2 ",
"   c #E66F2C",
".  c #EA6F2D",
"X  c #E7762F",
"o  c #EB752F",
"O  c #E77C2F",
"+  c #EA7A2F",
"@  c #E77E31",
"#  c #EB7D30",
"$  c #F07F31",
"%  c #E68432",
"&  c #EC8332",
"*  c #E58833",
"=  c #ED8C35",
"-  c #ED8E38",
";  c #F08633",
":  c #F08C35",
">  c #ED9336",
",  c #EF9837",
"<  c #ED943A",
"1  c #ED9B3B",
"2  c #F19437",
"3  c #F19837",
"4  c #F19638",
"5  c #F19B39",
"6  c #EEA23C",
"7  c #EFAB3E",
"8  c #F2A33A",
"9  c #F3AB3D",
"0  c #F4B23F",
"q  c #ED9F42",
"w  c #EEA443",
"e  c #EFAC41",
"r  c #EFAC4B",
"t  c #F1A442",
"y  c #F2AB44",
"u  c #F1AB4B",
"i  c #EEB14E",
"p  c #F3B441",
"a  c #F5BC42",
"s  c #F3B44A",
"d  c #F4BC4D",
"f  c #EFB857",
"g  c #F1B455",
"h  c #F3BB52",
"j  c #F3BE5B",
"k  c #F2BE60",
"l  c #F6C344",
"z  c #F7CA47",
"x  c #F8CB47",
"c  c #F6C54A",
"v  c #F6CD49",
"b  c #F8CE48",
"n  c #F7D34A",
"m  c #F8D34A",
"M  c #F7DD4D",
"N  c #F9DB4D",
"B  c #F5C254",
"V  c #F7CB54",
"C  c #F8CD55",
"Z  c #F5C35B",
"A  c #F6CA5C",
"S  c #F7D157",
"D  c #F9D553",
"F  c #FADD53",
"G  c #F7D55B",
"H  c #F8D35D",
"J  c #F9DB5A",
"K  c #FAE354",
"L  c #FCE856",
"P  c #FBE45C",
"I  c #FCEA5D",
"U  c #F4C062",
"Y  c #F6CC63",
"T  c #F8CC62",
"R  c #F5CA6C",
"E  c #F7D064",
"W  c #F8D665",
"Q  c #F9DA63",
"!  c #F7D46C",
"~  c #F8D56B",
"^  c #F9DB6C",
"/  c #F7D372",
"(  c #F8D171",
")  c #F7D975",
"_  c #F9DD73",
"`  c #F7D47C",
"'  c #F8D17D",
"]  c #F9DE7C",
"[  c #FAE463",
"{  c #FCEC64",
"}  c #F7E16E",
"|  c #FBE56C",
" . c #FCEC6B",
".. c #FDF167",
"X. c #FDF26C",
"o. c #FBE573",
"O. c #FBEC74",
"+. c #FBE47B",
"@. c #FCEC7C",
"#. c #FDF374",
"$. c #FDF47B",
"%. c #FDF87C",
"&. c #F8DD8A",
"*. c #F9E086",
"=. c #FCEC83",
"-. c #FBE78B",
";. c #FDEC8C",
":. c #FDF483",
">. c #FDF984",
",. c #FDF48C",
"<. c #FEF98C",
"1. c #FBE695",
"2. c #FCEA93",
"3. c #FBE599",
"4. c #FBE998",
"5. c #FDF494",
"6. c #FEFA94",
"7. c #FDF39D",
"8. c #FEFA9B",
"9. c #FCEDA5",
"0. c #FDF7A6",
"q. c #FEFBA4",
"w. c #FDF5AA",
"e. c #FEFAAC",
"r. c #FDF2B2",
"t. c #FEFBB4",
"y. c #FEF7BD",
"u. c #FEFBBB",
"i. c #FEFCC4",
"p. c #FEFDCB",
"a. c #FEFDD3",
"s. c #FEFEDB",
/* pixels */
"* 6 < @ # = 4 5 5 5 5 5 5 5 3 4 2 ; + # < 6 % @ & - 4 5 5 5 5 5 3 5 5 4 = & X % ",
"f / Z 1 & # ; : 4 4 5 3 3 3 4 : # + & t Y / r - @ & : 2 3 5 5 5 4 2 2 ; $ O < r ",
"r.i.w.) i = # # ; : 2 : : : ; $ # - g &.u.u.2.U 1 & # & : : 2 : 2 : # o & 1 R 9.",
"s.s.p.t.=.Z 1 & # $ ; : ; $ o ; w R 9.p.s.a.u.7./ u = O + ; ; ; $ o # - g &.y.s.",
"a.p.p.u.e.;.E u = o o o o X - f &.y.s.s.a.p.i.u.7.+.h 1 & o o o X # q R 9.a.s.a.",
"p.i.u.e.0.5.=.Q d 4 #   @ q R 9.p.s.a.p.p.u.t.e.q.,.o.A y & o o - f &.y.a.s.a.p.",
"u.t.e.q.5.:.@.| H B t < g &.y.a.a.a.i.i.t.e.q.8.,.@.O.Q C s 5 w R 9.p.a.a.p.p.u.",
"q.q.6.,.:.O. .[ J B d h 1.p.p.p.i.y.t.t.q.8.6.>.$.X.| J C d s ( e.p.p.p.u.u.t.e.",
"6.<.>.#.X. .[ P D c e B 5.w.w.e.q.0.8.6.<.>.%.#.X. .[ J v p e ] 0.e.e.w.0.8.8.6.",
"%.#.#.X.{ { P F b a 6 h =.,.,.:.:.:.>.%.%.#.X...{ P F D c 7 w ^ ;.:.,.,.:.>.%.%.",
"X.X...{ I K M n l 0 6 h +.=.@.$.$.#.#.X.X.....I P K n b a 6 6 ~ @.=.@.@.$.#.X.X.",
"{ I L L M N n x a 9 1 s _ O.O.O.O. .....I I L K M n v l 0 6 6 E o.@.O.O.O. ...{ ",
"K N N N m m b l a 8 > s ~ } | | | P P K K N N N m b x a 0 > 5 A ^ | | { [ L K M ",
"N N N m n x x l 0 5 > y T Q Q G N n n N N m m m b l l p 9 > 5 Z W Q J D n n m N ",
"m n n n x x 0 0 9 4 = y Z A c l z x n n m m b x x l a 0 8 = 1 h A B z l x n n n ",
"x x l l l 0 0 0 8 2 = y s y p a a l z x x x l l l p 0 9 5 = 1 s u p p l l l x l ",
"l l a a 0 p 9 8 5 : & t 1 , 9 9 0 a a l l l a a 0 0 9 8 3 & 4 8 2 5 9 0 a a l l ",
"0 0 0 0 0 9 8 5 5 ; & 5 & 2 5 9 9 0 0 0 0 p 0 0 9 8 8 5 4 & : < ; 3 8 9 9 9 0 0 ",
"9 9 9 8 8 5 5 5 2 ; # 4 & : 3 5 8 8 9 9 9 8 9 8 6 8 3 3 : + - = & 2 5 1 8 8 9 9 ",
"8 8 8 8 5 3 4 2 & # & 1 & # ; 2 , 5 5 8 8 8 5 5 1 3 4 ; & + < < O & 2 4 5 8 8 8 ",
"3 3 3 5 4 4 : # # = r j w = # & > 3 3 5 3 5 4 5 5 = & X # < j h < & # = 2 4 3 5 ",
"2 2 2 2 : # # @ < k 1.w.*.f < & + & 2 4 2 4 2 2 & # @ % u ` w.7.R w = @ & : : > ",
": ; ; ; # # & u ` r.a.a.i.2.Y t = o # & : : ; # # # - k 3.i.s.p.w.+.h < # # & : ",
"o $ o o # < k 3.i.s.s.a.p.u.0.) d < @ o + $ o o & u &.r.a.s.s.p.i.e.-.T t & X + ",
"+ o . # u ' r.a.a.a.a.p.u.t.e.5.+.B w & X . @ < k 3.i.a.s.a.p.u.t.w.0.=.W s < o ",
"5 ; q k 4.i.s.a.p.i.u.u.e.q.5.,.+.| C y - & u ' r.a.s.p.p.i.t.t.e.8.,.:.o.W h 6 ",
"s s ! w.a.a.p.p.u.u.e.q.8.<.:.#. .[ G c s g 1.i.a.a.p.i.u.e.e.8.6.>.$.O.[ J A d ",
"y s -.y.u.u.t.t.e.q.6.6.>.$.X. .[ P S d y Y 0.y.y.t.t.e.q.8.6.<.%.$. .{ [ J V p ",
"6 s +.5.5.,.5.<.<.<.>.%.#.X.{ { P D v p 6 Y ,.5.,.,.,.,.>.>.%.#.#.X.{ P K D l 7 ",
"1 s _ =.=.@.$.$.#.#.X.X...{ [ K F n z w 6 A =.=.:.$.$.$.%.#.X.X...{ P K D b 0 8 ",
", e ^ @.@.@.O.#.X. ...I I L K N n z a 7 6 B +.+.O.O.X.#.X.....I L P M n b l 0 3 ",
"> y ~ | | |  .[ I L K K K M n n z l a 1 , h o.o.o. .| { L K K K M M n n z a 9 > ",
"> e Y ~ [ Q J n M M M M N m n b l a 0 5 4 h ! ^ [ J F N N N N N m n b x x 0 9 2 ",
"= 6 Z A S v b b m n n n n x x l l 0 9 2 > d A G V b b v m m m m n x x l 0 0 8 = ",
"= 6 h d a l l x z v b z x x x a p 9 8 = = s h s a l l z x x n x x l l 0 0 8 3 % ",
"& 8 w 1 9 0 0 0 l l l l a l a p 0 8 5 = : y 1 8 7 0 a a l l l x l l 0 0 9 8 3 & ",
"& 1 < = 6 7 9 0 0 0 a 0 a 0 0 9 8 8 5 ; = 5 = 4 7 9 0 0 0 l 0 0 0 0 9 8 8 3 2 & ",
"# 4 = & 3 5 8 9 0 0 0 0 9 9 8 8 5 3 2 # & 2 & 2 3 8 8 9 0 9 9 0 9 7 8 8 8 3 2 + ",
"# < = # = 4 5 5 8 8 8 8 8 8 5 5 5 4 & + & > & & 2 3 5 8 8 8 8 8 8 8 3 3 3 : ; O ",
"- w 1 & O ; 4 3 3 3 5 5 3 3 3 3 : & + & 1 y ; ; & = 4 3 3 5 5 5 3 3 3 2 : + + = "
};
